<svg id="_001-search" data-name="001-search" xmlns="http://www.w3.org/2000/svg" width="35.952" height="35.938" viewBox="0 0 35.952 35.938"><path id="Path_2884" data-name="Path 2884" d="M35.952 33.033A2.959 2.959.0 0 1 30.9 35.125L22.528 26.75a.7.7.0 0 1 0-.99l.035-.035L21.3 24.461A13.459 13.459.0 0 1 0 13.516 13.556 13.556.0 0 1 1.8 6.783a.7.7.0 0 1 1.221.7A12.075 12.075.0 1 0 6.255 3.849a.7.7.0 1 1-.842-1.123A13.464 13.464.0 0 1 26.93 13.516a13.39 13.39.0 0 1-2.521 7.835l1.264 1.264.035-.035a.725.725.0 0 1 .5-.2.7.7.0 0 1 .5.2l8.376 8.376a2.97 2.97.0 0 1 .871 2.078zm-1.86 1.109a1.553 1.553.0 0 0-.007-2.2l-7.877-7.877-2.19 2.191L31.9 34.142a1.559 1.559.0 0 0 2.191.0zM23.553 24.735l1.13-1.13-1.152-1.152a12.247 12.247.0 0 1-1.13 1.13zm0 0" transform="translate(0 -0.051)" fill="#11bf66"/><path id="Path_2885" data-name="Path 2885" d="M43.219 32.05a11.219 11.219.0 0 1 9.716 16.828.693.693.0 0 1-.955.26.7.7.0 0 1-.26-.962 9.822 9.822.0 1 0-3.594 3.588.7.7.0 0 1 .7 1.221A11.219 11.219.0 1 1 43.219 32.05zm0 0" transform="translate(-29.753 -29.804)" fill="#11bf66"/><path id="Path_2886" data-name="Path 2886" d="M295.7 280.714a.7.7.0 0 1 .077.99l-.014.014a.686.686.0 0 1-.527.239.7.7.0 0 1-.463-.176.707.707.0 0 1 .927-1.067zm0 0" transform="translate(-273.863 -260.853)" fill="#11bf66"/><path id="Path_2887" data-name="Path 2887" d="M112.638 89.9a.7.7.0 0 1-.7.7H100.4a.7.7.0 0 1-.7-.7 6.47 6.47.0 0 1 3.1-5.532 3.95 3.95.0 0 1-.639-2.162v-1.65a4 4 0 1 1 8 0V82.2a4.008 4.008.0 0 1-.639 2.162 6.469 6.469.0 0 1 3.11 5.532zm-11.493-.7h10.039a5.073 5.073.0 0 0-2.647-3.777 3.974 3.974.0 0 1-4.746.0A5.073 5.073.0 0 0 101.145 89.194zm7.61-6.992v-.807a3.132 3.132.0 0 1-1.86-.66 5.846 5.846.0 0 1-2.8.857 3.255 3.255.0 0 1-.52-.042V82.2a2.583 2.583.0 0 0 .772 1.846.576.576.0 0 1 .07.063 2.549 2.549.0 0 0 1.748.688 2.589 2.589.0 0 0 1.748-.681.328.328.0 0 1 .07-.07 2.582 2.582.0 0 0 .772-1.846zm-1.243-2.815a1.7 1.7.0 0 0 1.179.59 2.6 2.6.0 0 0-5.09.14 4.153 4.153.0 0 0 2.963-.85A.707.707.0 0 1 107.513 79.386zm0 0" transform="translate(-92.7 -71.18)" fill="#11bf66"/><path id="Path_2888" data-name="Path 2888" d="M42.207 66.768a.709.709.0 0 1 .1.99l-.014.021a.7.7.0 0 1-.541.253.721.721.0 0 1-.449-.162.7.7.0 0 1-.091-.99l.007-.014a.709.709.0 0 1 .99-.1zm0 0" transform="translate(-38.163 -61.937)" fill="#11bf66"/></svg>