<svg xmlns="http://www.w3.org/2000/svg" width="49.868" height="43.998" viewBox="0 0 49.868 43.998"><defs><style>.a{fill:#e95a0c;}</style></defs><path class="a" d="M121.15 191.709a.82.82.0 0 1-.533-.2l-5.328-4.536a.824.824.0 0 1 0-1.254l5.328-4.536a.823.823.0 1 1 1.067 1.253l-4.591 3.91 4.591 3.91a.824.824.0 0 1-.534 1.45zm0 0" transform="translate(-101.474 -159.702)"/><path class="a" d="M250.531 191.709a.824.824.0 0 1-.534-1.45l4.591-3.91L250 182.439a.823.823.0 0 1 1.067-1.253l5.328 4.536a.824.824.0 0 1 0 1.254l-5.328 4.536A.82.82.0 0 1 250.531 191.709zm0 0" transform="translate(-220.339 -159.702)"/><path class="a" d="M189.779 170.436a.838.838.0 0 1-.171-.018.824.824.0 0 1-.636-.975l3.32-15.764a.823.823.0 0 1 1.611.34l-3.32 15.764A.823.823.0 0 1 189.779 170.436zm0 0" transform="translate(-166.73 -135.027)"/><path class="a" d="M44.34 44H5.528A5.534 5.534.0 0 1 0 38.47V5.528A5.534 5.534.0 0 1 5.528.0H44.34a5.534 5.534.0 0 1 5.528 5.528V38.47A5.534 5.534.0 0 1 44.34 44zM5.528 1.647A3.886 3.886.0 0 0 1.647 5.528V38.47a3.886 3.886.0 0 0 3.881 3.881H44.34a3.886 3.886.0 0 0 3.881-3.881V5.528A3.886 3.886.0 0 0 44.34 1.647zm0 0"/><path class="a" d="M49.045 99.737H.823a.823.823.0 0 1 0-1.647H49.045a.823.823.0 0 1 0 1.647zm0 0" transform="translate(0 -86.553)"/><path class="a" d="M100.055 39.5a2.605 2.605.0 1 1 2.605-2.605A2.609 2.609.0 0 1 100.055 39.5zm0-3.564a.959.959.0 1 0 .959.959A.96.96.0 0 0 100.055 35.936zm0 0" transform="translate(-85.988 -30.256)"/><path class="a" d="M31.992 39.285A2.605 2.605.0 1 1 34.6 36.68 2.608 2.608.0 0 1 31.992 39.285zm0-3.564a.959.959.0 1 0 .959.959A.96.96.0 0 0 31.992 35.721zm0 0" transform="translate(-25.931 -30.067)"/><path class="a" d="M168.121 39.714a2.605 2.605.0 1 1 2.605-2.605A2.608 2.608.0 0 1 168.121 39.714zm0-3.564a.959.959.0 1 0 .959.959A.96.96.0 0 0 168.121 36.15zm0 0" transform="translate(-146.049 -30.446)"/></svg>