<svg xmlns="http://www.w3.org/2000/svg" width="35.62" height="35.62" viewBox="0 0 35.62 35.62"><defs><style>.a{fill:#e95a0c;}</style></defs><g transform="translate(14.513)"><path class="a" d="M195.3.0a3.3 3.3.0 1 0 3.3 3.3A3.3 3.3.0 0 0 195.3.0zm0 5.5a2.2 2.2.0 1 1 2.2-2.2A2.2 2.2.0 0 1 195.3 5.5z" transform="translate(-192)"/></g><g transform="translate(12.864 7.892)"><path class="a" d="M175.144 104h-.13l-.116.058a4.381 4.381.0 0 1-3.905.0l-.116-.058h-.13A2.751 2.751.0 0 0 168 106.748v3.3a1.649 1.649.0 0 0 1.649 1.649h6.595a1.649 1.649.0 0 0 1.649-1.649v-3.3A2.751 2.751.0 0 0 175.144 104zm1.649 6.045a.55.55.0 0 1-.55.55h-6.595a.55.55.0 0 1-.55-.55v-3.3a1.649 1.649.0 0 1 1.532-1.644 5.5 5.5.0 0 0 4.631.0 1.649 1.649.0 0 1 1.532 1.644z" transform="translate(-168 -104)"/></g><g transform="translate(27.376 19.955)"><path class="a" d="M363.3 264a3.3 3.3.0 1 0 3.3 3.3A3.3 3.3.0 0 0 363.3 264zm0 5.5a2.2 2.2.0 1 1 2.2-2.2A2.2 2.2.0 0 1 363.3 269.5z" transform="translate(-360 -264)"/></g><g transform="translate(25.728 27.926)"><path class="a" d="M343.144 368h-.13l-.116.055a4.382 4.382.0 0 1-3.905.0l-.116-.055h-.13A2.751 2.751.0 0 0 336 370.748v3.3a1.649 1.649.0 0 0 1.649 1.649h6.595a1.649 1.649.0 0 0 1.649-1.649v-3.3A2.751 2.751.0 0 0 343.144 368zm1.649 6.045a.55.55.0 0 1-.55.55h-6.595a.55.55.0 0 1-.55-.55v-3.3a1.649 1.649.0 0 1 1.532-1.644 5.5 5.5.0 0 0 4.631.0 1.649 1.649.0 0 1 1.532 1.644z" transform="translate(-336 -368)"/></g><g transform="translate(1.649 19.955)"><path class="a" d="M27.3 264a3.3 3.3.0 1 0 3.3 3.3A3.3 3.3.0 0 0 27.3 264zm0 5.5a2.2 2.2.0 1 1 2.2-2.2A2.2 2.2.0 0 1 27.3 269.5z" transform="translate(-24 -264)"/></g><g transform="translate(0 27.926)"><path class="a" d="M7.144 368h-.13l-.116.055a4.381 4.381.0 0 1-3.905.0L2.878 368h-.13A2.751 2.751.0 0 0 0 370.748v3.3a1.649 1.649.0 0 0 1.649 1.649H8.244a1.649 1.649.0 0 0 1.649-1.649v-3.3A2.751 2.751.0 0 0 7.144 368zm1.649 6.045a.55.55.0 0 1-.55.55H1.649a.55.55.0 0 1-.55-.55v-3.3A1.649 1.649.0 0 1 2.631 369.1a5.5 5.5.0 0 0 4.631.0 1.649 1.649.0 0 1 1.532 1.644z" transform="translate(0 -368)"/></g><g transform="translate(12.314 29.574)"><path class="a" d="M170.946 392.976v0a.55.55.0 0 0-.721-.29h0a12.191 12.191.0 0 1-7.839.54l.514-.151a.55.55.0 0 0-.309-1.055l-2.2.645c-.008.0-.014.009-.022.012a.545.545.0 0 0-.142.079.48.48.0 0 0-.055.035.532.532.0 0 0-.135.187.55.55.0 0 0-.042.227 1.694 1.694.0 0 0 .055.22c0 .008.0.016.006.024l1.1 2.1a.55.55.0 0 0 .975-.509l-.447-.855a13.228 13.228.0 0 0 8.968-.488A.55.55.0 0 0 170.946 392.976z" transform="translate(-159.998 -391.995)"/></g><g transform="translate(23.529 4.302)"><path class="a" d="M314.279 72.77a.55.55.0 0 0-.777.0l-.778.778a13.17 13.17.0 0 0-7.961-10.881.55.55.0 0 0-.431 1.011A12.072 12.072.0 0 1 311.6 73.39l-.62-.62a.55.55.0 0 0-.777.777l1.649 1.649a.55.55.0 0 0 .777.0h0l1.649-1.649A.55.55.0 0 0 314.279 72.77z" transform="translate(-303.998 -62.622)"/></g><g transform="translate(3.297 3.307)"><path class="a" d="M56.777 49.587a.511.511.0 0 0-.014-.1s-.006-.008-.008-.014.0-.009.0-.014a.527.527.0 0 0-.052-.076.554.554.0 0 0-.063-.091.516.516.0 0 0-.107-.073.484.484.0 0 0-.062-.045l-2.2-1a.55.55.0 0 0-.456 1l1.138.52A13.169 13.169.0 0 0 48 61.315a.55.55.0 1 0 1.1.0A12.072 12.072.0 0 1 55.047 50.9l-.4.83a.55.55.0 0 0 .257.733.541.541.0 0 0 .238.055.55.55.0 0 0 .495-.312l1.1-2.293a.025.025.0 0 1 0-.017.528.528.0 0 0 .03-.117.568.568.0 0 0 .021-.091A.548.548.0 0 0 56.777 49.587z" transform="translate(-48 -48.134)"/></g></svg>