<svg xmlns="http://www.w3.org/2000/svg" width="35.069" height="35.069" viewBox="0 0 35.069 35.069"><defs><style>.a{fill:#5549f3;}</style></defs><path class="a" d="M34.042.0H1.027A1.027 1.027.0 0 0 0 1.027V34.042a1.027 1.027.0 0 0 1.027 1.027H34.042a1.027 1.027.0 0 0 1.027-1.027V1.027A1.027 1.027.0 0 0 34.042.0zM33.014 16.507H27.809a1.027 1.027.0 0 0-1.027 1.027v4.11a1.027 1.027.0 0 1-2.055.0v-4.11A1.027 1.027.0 0 0 23.7 16.507H18.562V12.4h3.082a3.082 3.082.0 1 0 0-6.165H18.562V2.055H33.014zM2.055 2.055H16.507V7.26a1.027 1.027.0 0 0 1.027 1.027h4.11a1.027 1.027.0 1 1 0 2.055h-4.11a1.027 1.027.0 0 0-1.027 1.027v5.137H12.4V13.425a3.082 3.082.0 0 0-6.165.0v3.082H2.055zm0 16.507H7.26a1.027 1.027.0 0 0 1.027-1.027v-4.11a1.027 1.027.0 0 1 2.055.0v4.11a1.027 1.027.0 0 0 1.027 1.027h5.137v4.11H13.425a3.082 3.082.0 1 0 0 6.165h3.082v4.178H2.055zm30.96 14.452H18.562V27.809a1.027 1.027.0 0 0-1.027-1.027h-4.11a1.027 1.027.0 1 1 0-2.055h4.11A1.027 1.027.0 0 0 18.562 23.7V18.562h4.11v3.082a3.082 3.082.0 0 0 6.165.0V18.562h4.178zm0 0"/></svg>