<svg xmlns="http://www.w3.org/2000/svg" width="49.499" height="49.5" viewBox="0 0 49.499 49.5"><defs><style>.a{fill:#006164;}</style></defs><g transform="translate(0)"><path class="a" d="M216.827 433.65h3.3a.825.825.0 0 0 0-1.65h-3.3a.825.825.0 0 0 0 1.65z" transform="translate(-193.727 -387.45)"/><path class="a" d="M96.827 12.375a.825.825.0 0 0 .825-.825V6.6h26.4v6.6a.825.825.0 0 0 1.65.0V3.3c0-1.485-1.9-3.3-4.125-3.3h-21.45A4.13 4.13.0 0 0 96 4.125V11.55A.825.825.0 0 0 96.827 12.375zm.825-8.25a2.475 2.475.0 0 1 2.475-2.475h21.45a2.566 2.566.0 0 1 2.475 1.65V4.95h-26.4z" transform="translate(-86.102)"/><path class="a" d="M124.877 352a.825.825.0 0 0-.825.825v4.125h-26.4v-3.3a.825.825.0 1 0-1.65.0v7.425a4.13 4.13.0 0 0 4.125 4.125h21.45a4.13 4.13.0 0 0 4.125-4.125v-8.25A.825.825.0 0 0 124.877 352zm-.825 9.075a2.475 2.475.0 0 1-2.475 2.475h-21.45a2.475 2.475.0 0 1-2.475-2.475V358.6h26.4z" transform="translate(-86.102 -315.7)"/><path class="a" d="M202.477 24h-1.65a.825.825.0 1 0 0 1.65h1.65a.825.825.0 0 0 0-1.65z" transform="translate(-179.377 -21.525)"/><path class="a" d="M250.477 24h-1.65a.825.825.0 0 0 0 1.65h1.65a.825.825.0 1 0 0-1.65z" transform="translate(-222.427 -21.525)"/><path class="a" d="M228.687 109.248h0a.825.825.0 0 0-.635-.3H206.4l-.421-2.837A2.491 2.491.0 0 0 203.528 104H2e2v1.65h3.526a.825.825.0 0 1 .817.7l2.883 19.457a2.491 2.491.0 0 0 2.449 2.113H211.7a2.46 2.46.0 0 0 4.646.0h3.6a2.475 2.475.0 1 0 0-1.65h-3.6a2.46 2.46.0 0 0-4.646.0h-2.028a.831.831.0 0 1-.817-.7l-.262-1.77h16.98a.825.825.0 0 0 .81-.672l2.475-13.2A.825.825.0 0 0 228.687 109.248zm-6.41 17.027a.825.825.0 1 1-.825.825A.825.825.0 0 1 222.277 126.275zm-8.25.0a.825.825.0 1 1-.825.825A.825.825.0 0 1 214.027 126.275zm10.865-4.125H208.353l-1.71-11.55h20.419z" transform="translate(-179.377 -93.275)"/><path class="a" d="M21.452 146.725A10.725 10.725.0 1 0 10.727 157.45 10.725 10.725.0 0 0 21.452 146.725zm-19.8.0a9.075 9.075.0 1 1 9.075 9.075A9.075 9.075.0 0 1 1.652 146.725z" transform="translate(-0.002 -121.975)"/><path class="a" d="M76.127 182.025v-.942A3.293 3.293.0 0 0 75.3 174.6a1.65 1.65.0 1 1 1.65-1.65.825.825.0 1 0 1.65.0 3.3 3.3.0 0 0-2.475-3.183v-.942a.825.825.0 1 0-1.65.0v.942a3.293 3.293.0 0 0 .825 6.483 1.65 1.65.0 1 1-1.65 1.65.825.825.0 1 0-1.65.0 3.3 3.3.0 0 0 2.475 3.183v.942a.825.825.0 1 0 1.65.0z" transform="translate(-64.577 -150.675)"/><path class="a" d="M280.827 177.65h11.55a.825.825.0 0 0 0-1.65h-11.55a.825.825.0 0 0 0 1.65z" transform="translate(-251.127 -157.85)"/><path class="a" d="M416.827 177.65h1.65a.825.825.0 1 0 0-1.65h-1.65a.825.825.0 0 0 0 1.65z" transform="translate(-373.102 -157.85)"/></g></svg>