<svg xmlns="http://www.w3.org/2000/svg" xmlns:xlink="http://www.w3.org/1999/xlink" width="715" height="840" viewBox="0 0 715 840"><defs><style>.a,.aq{fill:none;}.b{clip-path:url(#a);}.c{fill:#e5f3f9;}.d{isolation:isolate;}.e{fill:#adcdfc;}.f{fill:#e2edff;}.g{fill:#c7d8f2;}.h{fill:#7baeff;}.i{fill:#4da5dc;}.j{fill:#3aaeef;}.k{fill:#e1e8f2;}.l{fill:#e16b40;}.m{fill:#ff8654;}.n{fill:#4250a6;}.o{fill:#ff9f75;}.p{fill:#cfdae4;}.q{fill:#00a5ff;}.r{fill:#382747;}.s{fill:#94a3c0;}.t{fill:#fff;}.u{fill:#ff5668;}.v{fill:#b391ff;}.w{fill:#d4d9df;}.x{fill:#f2f8fd;}.y{fill:url(#b);}.z{fill:#fcdd92;}.aa{fill:#fd6d52;}.ab{fill:#05ccff;}.ac{fill:#540cc7;}.ad{fill:#3f0995;}.ae{fill:#7974f5;}.af{fill:#e2a029;}.ag{fill:#efbc3f;}.ah{fill:#e95a0c;}.ai{fill:#58affb;}.aj{fill:#3278cc;}.ak{fill:#ffbe3d;}.al{fill:#7181f4;}.am{fill:#495dea;}.an{fill:#343996;}.ao{fill:#2689fd;}.ap{fill:#1ae5ff;}.aq{stroke:#16c5dc;stroke-miterlimit:10;}.ar{fill:#f1f1f1;}.as{fill:#fdb913;}.at{opacity:0.53;}.au{fill:#212973;}.av{fill:#1ce5ff;}.aw{fill:#112b46;}.ax{fill:#2c2982;}.ay{fill:#ffaa83;}.az{fill:#56548c;}.ba{fill:#2c2264;}</style><clipPath id="a"><rect class="a" width="715" height="840" transform="translate(0 151)"></rect></clipPath><linearGradient id="b" x1="0.849" y1="-3.15" x2="0.723" y2="-0.46" gradientUnits="objectBoundingBox"><stop offset="0" stop-color="#c6e6ff"></stop><stop offset="1" stop-color="#8d9fff"></stop></linearGradient></defs><g class="b" transform="translate(0 -151)"><g transform="translate(-80.865 114.817)"><path class="c" d="M713.01,546.541c-28.943-16.711-69.548-22.476-106.459-17.3l130.989-76.121c14.308-8.316,14.233-21.8-.169-30.11L437.544,249.9c-14.4-8.314-37.673-8.314-51.981,0L283.1,309.445c-44.33-19.573-107.768-17.665-148.072,5.758s-43.433,60.2-9.5,85.816L87.684,423.011c-14.308,8.316-14.231,21.8.169,30.11L387.682,626.227c14.4,8.314,37.673,8.314,51.979,0l84.138-48.9c-8.83,21.407,1.232,44.92,30.177,61.631,44.2,25.519,115.693,25.519,159.607,0S757.21,572.06,713.01,546.541Z" transform="translate(0.032 209.013)"></path><g transform="translate(111.081 194.559)"><g transform="translate(25.248 308.246)"><g transform="translate(0 23.461)"><g class="d"><path class="e" d="M229.846,298.21c-1.182,13.137-13.547,22.059-24.7,26.868-12.15,5.235-25.506,7.345-38.687,7.178-13.453-.174-27.188-2.746-39.319-8.715-10.585-5.21-21.821-14.657-21.785-27.508-.025,9.358.63,17.09,7.373,24.4,8.682,9.406,21.752,14.469,34.046,17.008,23.988,4.953,56.647,2.56,74.869-15.906,7.331-7.429,8.333-15.262,8.36-25.142Q229.963,297.3,229.846,298.21Z" transform="translate(-105.353 -260.094)"></path><g transform="translate(0)"><path class="f" d="M211.588,289.423c24.417,14.1,24.574,36.957.316,51.054s-63.752,14.1-88.169,0-24.517-36.955-.259-51.052S187.172,275.326,211.588,289.423Z" transform="translate(-105.353 -278.85)"></path></g></g></g><g transform="translate(54.15)"><g class="d"><g transform="translate(9.593 5.539)"><path class="g" d="M145.515,270.281l-.154,54.48-9.531,5.539.155-54.479Z" transform="translate(-135.829 -270.281)"></path></g><g transform="translate(0 5.539)"><path class="h" d="M140.99,275.82l-.155,54.479-9.593-5.539.154-54.479Z" transform="translate(-131.243 -270.281)"></path></g><g transform="translate(0.154)"><path class="i" d="M150.441,273.172l-9.531,5.539-9.593-5.539,9.531-5.539Z" transform="translate(-131.317 -267.633)"></path></g></g></g></g><path class="j" d="M120.44,195.768S100.9,200.978,95.7,212.7s-3.907,100.274,23.44,136.74S197.274,391.111,209,385.9s79.439-39.07,84.649-56-20.836-29.953-35.163-36.464-23.44-15.628-31.254-39.07-11.721-63.811-20.836-70.324S175.135,167.118,120.44,195.768Z" transform="translate(-93.281 -58.625)"></path><g transform="translate(25.329)"><path class="k" d="M193.033,188.769s-32.046-26.527-38.562-27.144c-7.818-.611-17.571,2.046-20.116,13.129s3.359,19.516,9.236,22.741,57.446,27.7,66.563,27.648,14.934-7.891,9.023-17.627S193.033,188.769,193.033,188.769Z" transform="translate(-74.441 -75.189)"></path><g transform="translate(0 5.219)"><g transform="translate(8.223)"><path class="l" d="M151.723,165.949a3.279,3.279,0,0,0,.065,1.054c.477,2.378,1.972,8.45,2.322,11,.333,2.443-2.242,6.831-8.874,7.023s-18.01-2.025-22.141-9.736c.234-1.418-.96-16.017-2.253-23.26Z" transform="translate(-96.75 -90.792)"></path><path class="m" d="M178.545,149.68c-4.792-20.079-21.413-30.792-39.363-25.649,0,0-19.587,2.941-27.481,20.662s5.668,31.626,14.346,40.388c3.654,3.593,6.417,6.369,8.161,8.138.634.667,1.257,1.347,1.914,1.951l.186.19.019-.019a41.21,41.21,0,0,0,17.328,9.387c8.036,1.966,17.335.157,22.122-5.484S183.338,169.758,178.545,149.68Z" transform="translate(-109.323 -122.751)"></path></g><path class="n" d="M141.436,159.9s-31.549,24.977-34.4,32.906-2.476,29.6,4.974,43.684,7.6,67.262,10.541,77.521,31.087,12.152,48.239,7.95,44.4-18.562,38.924-38.035c-8.088-28.757-6.166-57.724-5.515-66.875s-1.671-31.938-6.649-47.045c-1.05-3.187-12.288-7.64-12.288-7.64S173.606,156.944,141.436,159.9Z" transform="translate(-105.391 -83.165)"></path><path class="n" d="M147.157,265.423c-13.022-16.5,6.078-72.928-16.5-88.556-6.883-4.767-12.792-5.969-17.69-5.352-3.026,3.175-5.269,5.961-5.934,7.812-2.851,7.933-2.476,29.6,4.974,43.684s7.6,67.262,10.541,77.521c2.675,9.337,26.217,11.727,43.362,8.914l24.653-25.791S160.181,281.919,147.157,265.423Z" transform="translate(-105.391 -69.686)"></path><path class="k" d="M128.4,161.842c27.428-2.52,40.053,2.2,43.188,3.648a81.172,81.172,0,0,1-.4,19.481c-2.146,12.963-7.31,48.574-7.31,48.574s-16.923-29.256-28.064-41.3c-7.841-8.473-15.561-16.458-19.455-20.455C122.931,166.178,128.4,161.842,128.4,161.842Z" transform="translate(-93.422 -80.876)"></path><path class="m" d="M151.723,165.949a3.279,3.279,0,0,0,.065,1.054c.477,2.378,1.972,8.45,2.322,11,.333,2.443-2.242,6.831-8.874,7.023s-18.01-2.025-22.141-9.736c.234-1.418-.96-16.017-2.253-23.26Z" transform="translate(-88.527 -90.792)"></path><g transform="translate(8.223)"><path class="o" d="M178.545,149.68c-4.792-20.079-21.413-30.792-39.363-25.649,0,0-19.587,2.941-27.481,20.662s5.668,31.626,14.346,40.388c3.654,3.593,6.417,6.369,8.161,8.138.634.667,1.257,1.347,1.914,1.951l.186.19.019-.019a41.21,41.21,0,0,0,17.328,9.387c8.036,1.966,17.335.157,22.122-5.484S183.338,169.758,178.545,149.68Z" transform="translate(-109.323 -122.751)"></path></g><path class="p" d="M157.538,181.634l-12.225-10.828-9.78,17.115-9.862-6.227c11.142,12.058,28.039,41.27,28.039,41.27s4.307-29.706,6.689-44.73Z" transform="translate(-83.255 -70.297)"></path><path class="q" d="M148.923,202.608l-5.446-19.228.824-6.586-6.762-5.988-4.746,8.3,5.444,4.969,1.479,28.547c3.712,6.007,6.22,10.338,6.22,10.338S147.3,213.53,148.923,202.608Z" transform="translate(-75.481 -70.297)"></path></g><path class="l" d="M110.923,145.4a29.861,29.861,0,0,0,1.954,29.3c9.767,14.977,20.236,21.641,22.814,21.24s3.882-1.054,3.231-3.008-3.907-8.464-3.907-8.464-11.068-1.3-11.068-8.464,3.9-8.464,8.464-6.513,5.208,5.21,7.814,7.814,3.254,9.117,5.208,8.467,3.256-2.606,3.256-5.86,0-7.164-3.907-11.071.65-10.418-3.257-15.628a38.308,38.308,0,0,0-6.511-7.161s2.6,3.907,15.628,1.3,18.882-1.951,24.092-5.208,3.907-10.418.65-13.024-11.068-3.907-20.185-7.161-14.325-1.3-25.4,1.3S108.319,137.589,110.923,145.4Z" transform="translate(-102.583 -120.255)"></path></g><path class="r" d="M209.721,319.7s-.433,6.513,6.513,11.288,8.247,7.812,13.89,9.983,10.853,9.55,8.249,14.76-14.76,6.078-22.574,3.907-9.117-9.117-16.5-11.721a27.266,27.266,0,0,1-12.154-7.814c-2.171-2.171-1.3-10.853-1.3-10.853l26.481-8.68" transform="translate(7.571 97.44)"></path><path class="r" d="M225.91,307.657s-.433,6.513,6.511,11.288,8.249,7.814,13.892,9.983,10.853,9.552,8.247,14.76-14.758,6.078-22.572,3.907-9.117-9.115-16.5-11.721a27.252,27.252,0,0,1-12.154-7.814c-2.171-2.169-1.3-10.851-1.3-10.851l26.479-8.682" transform="translate(25.241 84.3)"></path><path class="s" d="M114.568,238.766a47.574,47.574,0,0,1,1.3,9.767c0,4.557-3.254,17.581,3.257,33.209s50.138,18.882,64.463,25.393,22.789,12.372,25.4,14.325,6.293,29.52,17.579,46.016,30.388,49.486,34.728,63.378c0,0,12.353,2.913,23.442-4.342,5.806-3.8,5.21-6.076,5.21-6.076s-22.574-49.488-27.784-70.326-11.286-45.146-20.836-51.222-39.936-27.782-46.882-32.124-25.661-18.065-29.328-26.4S125.854,218.58,114.568,238.766Z" transform="translate(-70.045 -2.431)"></path><path class="s" d="M131.691,228.491a47.574,47.574,0,0,1,1.3,9.767c0,4.56-3.254,17.581,3.257,33.209s50.138,18.882,64.463,25.393,22.789,12.374,25.4,14.327,6.293,29.518,17.579,46.014,30.388,49.486,34.728,63.378c0,0,12.353,2.914,23.442-4.34,5.806-3.8,5.208-6.078,5.208-6.078s-22.572-49.488-27.782-70.324S268,294.692,258.446,288.614s-39.938-27.782-46.882-32.124-25.663-18.065-29.328-26.4S142.977,208.306,131.691,228.491Z" transform="translate(-51.355 -13.645)"></path></g><g transform="translate(76.974 288.601)"><g transform="translate(243.379 271.987)"><g class="d"><g transform="translate(23.319 13.463)"><path class="g" d="M228.03,301.7l-.375,132.428-23.167,13.463.375-132.428Z" transform="translate(-204.487 -301.697)"></path></g><g transform="translate(0 13.463)"><path class="h" d="M217.032,315.161l-.375,132.428-23.319-13.463.375-132.428Z" transform="translate(-193.338 -301.697)"></path></g><g transform="translate(0.375)"><path class="i" d="M240,308.723l-23.168,13.464-23.319-13.463,23.167-13.463Z" transform="translate(-193.517 -295.26)"></path></g></g></g><path class="e" d="M575.159,258.889c-.034.385-.061.77-.132,1.155-.058.316-.153.628-.236.943-.1.366-.184.732-.314,1.094-.107.3-.249.6-.379.9-.167.385-.333.768-.535,1.144-.148.276-.326.546-.494.818-.266.431-.548.86-.864,1.282s-.619.814-.97,1.211c-.082.094-.157.19-.241.282-.475.517-1,1.023-1.548,1.521-.353.318-.747.625-1.132.933-.339.272-.663.548-1.027.811-.416.3-.874.592-1.324.883s-.9.609-1.4.9L266.69,445.868a41.587,41.587,0,0,1-8.054,3.541,53.285,53.285,0,0,1-6.959,1.734q-2.312.414-4.687.653c-1.351.134-2.713.224-4.076.272q-1.879.063-3.765.017-1.816-.044-3.62-.195l-.061,21.231q1.8.151,3.62.194,1.882.047,3.765-.017,2.049-.069,4.076-.272c1.581-.157,3.148-.374,4.687-.653a53.171,53.171,0,0,0,6.959-1.734,41.452,41.452,0,0,0,8.054-3.541L564.508,293.991c.153-.088.3-.176.45-.266.335-.2.621-.418.939-.625.452-.295.914-.586,1.332-.889.362-.264.686-.538,1.023-.809.387-.31.78-.617,1.134-.935.071-.065.157-.123.226-.188.473-.435.908-.881,1.32-1.33.088-.094.161-.19.245-.287.245-.276.494-.552.715-.835.1-.121.161-.251.253-.374.316-.422.6-.851.864-1.282.113-.182.26-.356.364-.54.05-.09.08-.186.13-.278.2-.376.368-.759.535-1.142.1-.224.228-.443.314-.669.027-.075.038-.153.065-.228.13-.366.22-.732.316-1.1.065-.247.163-.491.213-.74.012-.065.01-.132.021-.2.071-.387.1-.772.134-1.159.021-.251.078-.5.086-.753,0-.109,0-.215,0-.324l.061-21.231C575.251,258.17,575.192,258.529,575.159,258.889Z" transform="translate(96.028 -64.152)"></path><path class="e" d="M404.956,451.6c-1.228-.174-2.445-.385-3.643-.634q-1.951-.4-3.834-.939c-1.533-.437-3.024-.939-4.463-1.506a40,40,0,0,1-5.3-2.543L87.886,272.87c-7.247-4.183-10.866-9.675-10.851-15.159l-.061,21.231c-.015,5.484,3.6,10.976,10.851,15.162l299.828,173.1a40,40,0,0,0,5.3,2.543c1.439.567,2.93,1.069,4.463,1.506q1.879.536,3.834.941,1.8.37,3.646.634c1.18.167,2.374.3,3.572.4L408.531,452Q406.73,451.85,404.956,451.6Z" transform="translate(-76.974 -64.26)"></path><g transform="translate(0.061)"><path class="f" d="M737.37,344.558c14.4,8.316,14.478,21.8.169,30.11L439.66,547.776c-14.306,8.314-37.579,8.314-51.979,0L87.854,374.67c-14.4-8.314-14.478-21.794-.169-30.108L385.563,171.454c14.308-8.314,37.579-8.314,51.981,0Z" transform="translate(-77.003 -165.219)"></path></g></g><g transform="translate(152.664 372.286)"><g transform="translate(262.49 125.02)"><path class="t" d="M238.664,298.339l82.08,47.7L378.481,312.7,296.4,265Z" transform="translate(-238.664 -265.004)"></path><g transform="translate(34.88 18.354)"><g transform="translate(5.614)"><path class="u" d="M287.292,276.889l-12.913,7.5-16.354-4.817c4.566-5.223,15.586-7.3,24.619-4.637A20.261,20.261,0,0,1,287.292,276.889Z" transform="translate(-258.025 -273.779)"></path></g><g transform="translate(0 4.086)"><path class="v" d="M293.183,275.733c8.678,5.011,8.722,13.135.1,18.146s-22.649,5.011-31.329,0c-6.944-4.009-8.573-9.847-4.158-14.9l19.771,5.825Z" transform="translate(-255.341 -275.733)"></path></g></g><g transform="translate(60.305 36.639)"><path class="e" d="M268.039,303.988c-.719.416-.722,1.077-.008,1.493a2.815,2.815,0,0,0,2.577,0l36.642-21.154c.72-.416.724-1.077.008-1.493a2.815,2.815,0,0,0-2.577,0Z" transform="translate(-267.497 -282.522)"></path><g transform="translate(25.325 2.457)"><path class="w" d="M280.138,292.984a.79.79,0,0,0-.008,1.491,2.866,2.866,0,0,0,2.589.008l15.549-8.977a.793.793,0,0,0,0-1.5,2.846,2.846,0,0,0-2.577,0Z" transform="translate(-279.605 -283.697)"></path></g><g transform="translate(20.486 4.756)"><path class="w" d="M277.84,299.153c-.719.416-.736,1.085-.021,1.5a2.847,2.847,0,0,0,2.589-.006L304.737,286.6c.719-.416.724-1.077.008-1.493a2.827,2.827,0,0,0-2.577,0Z" transform="translate(-277.292 -284.795)"></path></g></g></g><g transform="translate(250.957 201.818)"><g transform="translate(0.015)"><path class="x" d="M341.316,326.2c2,1.152,2,3.018.023,4.168l-58.588,34.017a7.91,7.91,0,0,1-7.2,0l-40.894-23.609c-1.993-1.15-2.008-3.016-.023-4.168l58.588-34.017a7.923,7.923,0,0,1,7.2,0Z" transform="translate(-233.157 -301.723)"></path></g><g transform="translate(0 3.67)"><path class="y" d="M342.813,314.578c0,.052-.008.107-.017.159s-.023.088-.033.13-.027.1-.044.153-.034.082-.052.123a1.586,1.586,0,0,1-.075.159c-.019.038-.044.075-.067.113-.038.061-.075.119-.119.178-.027.036-.054.069-.084.1a2.443,2.443,0,0,1-.215.232c-.027.027-.054.056-.084.084-.05.044-.1.086-.157.128s-.092.075-.142.113-.121.082-.184.123-.123.084-.192.123l-58.588,34.017a5.419,5.419,0,0,1-.711.339l-.2.075c-.155.054-.316.1-.479.146s-.335.09-.508.125c-.2.042-.408.082-.617.107-.05.006-.1.017-.153.021a8.264,8.264,0,0,1-.853.048H279.1c-.282,0-.565-.017-.845-.046l-.126-.015a8.035,8.035,0,0,1-.818-.14c-.048-.01-.1-.025-.146-.036a7.286,7.286,0,0,1-.7-.215l-.126-.042a5.645,5.645,0,0,1-.776-.368l-40.894-23.609a2.936,2.936,0,0,1-1.41-1.533,1.769,1.769,0,0,1-.094-.567l-.015,2.347a1.842,1.842,0,0,0,.023.285,2.728,2.728,0,0,0,1.481,1.815l40.894,23.609a5.423,5.423,0,0,0,.736.353l.04.015.125.042c.148.054.3.109.454.153.084.023.169.042.253.063.048.01.1.023.144.036s.088.023.134.031c.165.036.335.065.5.088.059.008.121.015.18.021.042.006.084.01.126.015l.188.021c.165.013.333.021.5.025.052,0,.1,0,.157,0h.136c.075,0,.151,0,.228,0,.188-.006.377-.019.563-.036l.065-.01.151-.021c.144-.019.291-.036.433-.061.063-.01.121-.033.184-.046.174-.035.343-.079.51-.125.088-.025.182-.04.268-.067s.138-.054.209-.079l.2-.075a5.444,5.444,0,0,0,.711-.339l58.588-34.017.063-.038c.046-.027.088-.059.132-.088.061-.04.125-.079.182-.121s.1-.075.142-.113.109-.086.157-.128l.031-.027c.021-.019.033-.038.054-.057.077-.075.148-.153.215-.232.012-.017.033-.033.046-.05s.023-.036.036-.052c.044-.058.084-.119.119-.178.015-.025.036-.05.05-.075l.019-.038c.027-.052.05-.1.073-.159.015-.029.031-.061.044-.092l.008-.031a1.373,1.373,0,0,0,.044-.153.807.807,0,0,0,.029-.1l0-.027c.008-.052.013-.107.017-.159a.977.977,0,0,0,.012-.1l0-.046.013-2.347C342.826,314.477,342.818,314.527,342.813,314.578Z" transform="translate(-233.15 -291.526)"></path><g transform="translate(6.893)"><path class="z" d="M331.687,325.023a.709.709,0,0,1,0,1.341l-55.61,32.316a2.554,2.554,0,0,1-2.313,0L236.93,337.414a.71.71,0,0,1-.008-1.343l55.61-32.314a2.544,2.544,0,0,1,2.317,0Z" transform="translate(-236.446 -303.478)"></path></g></g></g><g transform="translate(80.17)"><path class="t" d="M151.493,238.564l82.08,47.7,57.737-33.335-82.08-47.7Z" transform="translate(-151.493 -205.23)"></path><g transform="translate(34.881 18.354)"><g transform="translate(5.615)"><path class="v" d="M200.12,217.115l-12.913,7.5L170.855,219.8c4.564-5.22,15.586-7.3,24.617-4.637A20.315,20.315,0,0,1,200.12,217.115Z" transform="translate(-170.855 -214.005)"></path></g><g transform="translate(0 4.087)"><path class="aa" d="M206.012,215.959c8.68,5.011,8.724,13.135.1,18.146s-22.647,5.011-31.327,0c-6.944-4.009-8.575-9.847-4.158-14.9l19.769,5.827Z" transform="translate(-168.171 -215.959)"></path></g></g><g transform="translate(60.306 36.639)"><path class="e" d="M180.869,244.214c-.719.416-.724,1.077-.008,1.493a2.824,2.824,0,0,0,2.575,0l36.642-21.156c.719-.414.724-1.075.008-1.491a2.815,2.815,0,0,0-2.577,0Z" transform="translate(-180.327 -222.748)"></path><g transform="translate(25.324 2.457)"><path class="w" d="M192.967,233.208a.792.792,0,0,0-.008,1.493,2.867,2.867,0,0,0,2.589.008l15.548-8.979c.72-.414.711-1.083,0-1.5a2.846,2.846,0,0,0-2.577,0Z" transform="translate(-192.435 -223.923)"></path></g><g transform="translate(20.484 4.754)"><path class="ab" d="M190.669,239.38c-.719.414-.736,1.083-.021,1.5a2.841,2.841,0,0,0,2.589-.008l24.329-14.047c.719-.414.724-1.075.008-1.491a2.81,2.81,0,0,0-2.575,0Z" transform="translate(-190.121 -225.021)"></path></g></g></g><g transform="translate(0 80.522)"><g transform="translate(59.618 44.009)"><g class="d" transform="translate(44.47)"><g transform="translate(96.698 55.829)"><path class="ac" d="M220.549,291.463l-.014,4.931L209.162,303l.014-4.931Z" transform="translate(-209.162 -291.463)"></path></g><g transform="translate(0 6.609)"><path class="ad" d="M259.641,323.759l-.014,4.931-96.7-55.829.014-4.931Z" transform="translate(-162.929 -267.93)"></path></g><g transform="translate(0.014)"><path class="ae" d="M271.007,320.6l-11.373,6.609-96.7-55.828,11.373-6.609Z" transform="translate(-162.936 -264.77)"></path></g></g><g class="d" transform="translate(22.239 12.924)"><g transform="translate(75.959 43.855)"><path class="af" d="M200,291.917l-.014,4.931-11.365,6.6.014-4.931Z" transform="translate(-188.617 -291.917)"></path></g><g transform="translate(0 6.605)"><path class="af" d="M228.273,317.962l-.014,4.931L152.3,279.038l.014-4.931Z" transform="translate(-152.3 -274.107)"></path></g><g transform="translate(0.014)"><path class="ag" d="M239.631,314.8l-11.365,6.6-75.958-43.855,11.365-6.6Z" transform="translate(-152.307 -270.949)"></path></g></g><g class="d" transform="translate(0 25.848)"><g transform="translate(34.758 20.068)"><path class="ah" d="M169.665,286.723l-.014,4.931-11.365,6.6.014-4.931Z" transform="translate(-158.286 -286.723)"></path></g><g transform="translate(0 6.605)"><path class="ah" d="M176.44,300.354l-.014,4.931-34.758-20.068.014-4.931Z" transform="translate(-141.667 -280.286)"></path></g><g transform="translate(0.014)"><path class="aa" d="M187.8,297.2l-11.365,6.6-34.759-20.068,11.365-6.6Z" transform="translate(-141.674 -277.129)"></path></g></g></g><g transform="translate(28.187 28.853)"><path class="e" d="M127.494,291.358c-1.134.655-1.14,1.7-.013,2.353a4.441,4.441,0,0,0,4.06,0l57.754-33.345c1.136-.655,1.14-1.7.015-2.351a4.446,4.446,0,0,0-4.062,0Z" transform="translate(-126.64 -257.524)"></path><g transform="translate(39.916 3.872)"><path class="e" d="M146.563,274.013a1.246,1.246,0,0,0-.013,2.351,4.528,4.528,0,0,0,4.083.013l24.509-14.149a1.249,1.249,0,0,0-.008-2.366,4.484,4.484,0,0,0-4.062,0Z" transform="translate(-145.724 -259.376)"></path></g><g transform="translate(32.289 7.494)"><path class="e" d="M142.942,283.737c-1.134.655-1.161,1.711-.033,2.366a4.485,4.485,0,0,0,4.081-.013l38.35-22.141c1.134-.655,1.138-1.7.013-2.351a4.445,4.445,0,0,0-4.062,0Z" transform="translate(-142.078 -261.107)"></path></g></g><g class="d" transform="translate(9.446)"><path class="z" d="M166.108,249.288l-9.178,5.333c-8.331-4.547-21.422-4.47-29.526.241-.167.1-.324.2-.485.3l-9.24-5.335c.163-.1.324-.2.492-.295C131.343,241.876,152.679,241.8,166.108,249.288Z" transform="translate(-117.679 -243.729)"></path><g transform="translate(40.655 6.394)"><path class="z" d="M146.307,246.786c10.9,6.827,12.03,17,3.353,24.483l-9.525-5.5c3.821-4.375,2.813-9.807-3.018-13.645Z" transform="translate(-137.117 -246.786)"></path></g><g transform="translate(1.673 26.429)"><path class="ah" d="M168.816,261.776a29.7,29.7,0,0,1-2.987,1.983c-12.982,7.544-33.889,7.73-47.35.565l9.188-5.338c8.347,4.225,21.016,4.041,28.93-.559a16.547,16.547,0,0,0,2.847-2.062Z" transform="translate(-118.479 -256.365)"></path></g></g><g transform="translate(0 6.963)"><path class="ah" d="M130.542,252.419c-6.27,4.723-5.773,11.491,1.472,15.915l-9.18,5.333c-12.338-7.375-12.88-18.912-1.577-26.609Z" transform="translate(-113.163 -247.058)"></path></g></g></g><g transform="translate(333.457 181.307)"><path class="ai" d="M258.5,144.5a16.815,16.815,0,0,1,7.622,13.2l-.084,73.812c-.013,4.844-3.455,6.806-7.672,4.371L237.786,224l-1,1.4-4.016,5.656-3.984-10.274-.989-2.545L207.212,206.35a16.793,16.793,0,0,1-7.609-13.193l.082-73.812c.015-4.846,3.443-6.814,7.659-4.38Z" transform="translate(-199.603 -113.92)"></path><g transform="translate(10.2 24.091)"><g transform="translate(0.029)"><path class="t" d="M217.478,132.721l-.006,2.077a1.591,1.591,0,0,1-2.389,1.372l-9.8-5.685a1.59,1.59,0,0,1-.791-1.38l0-2.077a1.591,1.591,0,0,1,2.391-1.372l9.8,5.685A1.589,1.589,0,0,1,217.478,132.721Z" transform="translate(-204.494 -125.438)"></path></g><g transform="translate(0 10.335)"><path class="e" d="M248.486,155.544l-.006,2.081A1.591,1.591,0,0,1,246.093,159l-40.818-23.567a1.593,1.593,0,0,1-.795-1.382l0-2.081a1.592,1.592,0,0,1,2.386-1.374l40.82,23.567A1.588,1.588,0,0,1,248.486,155.544Z" transform="translate(-204.48 -130.379)"></path></g></g><g transform="translate(11.124 53.229)"><path class="t" d="M214.537,144.917l-.007,2.381L209,166.171l-2.368-1.367,5.5-18.835-7.218-4.167.007-2.433Z" transform="translate(-204.922 -139.369)"></path><g transform="translate(11.749 7.204)"><path class="t" d="M219.631,147.637l-.008,2.432-6.237-3.6-.364,7.312c.688-.939,1.736-1.014,3.171-.188,2.732,1.579,3.932,4.578,3.922,8.057l-.013,4.762c-.01,3.742-1.566,5.281-4.8,3.413a9.8,9.8,0,0,1-4.764-8.935l0-1.621,2.232,1.288-.006,1.805a5.328,5.328,0,0,0,2.472,4.963c1.686.973,2.487.1,2.493-2.1l.013-4.735a5.353,5.353,0,0,0-2.472-4.965c-1.3-.749-2.188-.425-2.4,1.236l0,.55-2.232-1.288.632-13.21Z" transform="translate(-210.539 -142.814)"></path></g><g transform="translate(33.896 29.853)"><path class="t" d="M224.211,154.149a6.188,6.188,0,0,1,3.018,5.647l-.021,7.665c-.008,2.38-.945,3.411-3.041,2.2a6.287,6.287,0,0,1-3.039-5.712l.021-7.665C221.157,153.959,222.14,152.953,224.211,154.149Zm1.47,12.589.023-7.927a3.3,3.3,0,0,0-1.5-3.066c-1.069-.617-1.527-.017-1.531,1.318l-.023,7.927a3.371,3.371,0,0,0,1.521,3.1c1.046.607,1.5-.048,1.508-1.355" transform="translate(-221.128 -153.643)"></path></g><g transform="translate(23.495 14.703)"><path class="t" d="M222.233,160.3c-.006,2.353-.989,3.359-3.062,2.163a6.259,6.259,0,0,1-3.016-5.674l.021-7.718c.006-2.328.989-3.359,3.039-2.175a6.3,6.3,0,0,1,3.041,5.687Zm-1.525-.751.021-7.954a3.373,3.373,0,0,0-1.518-3.1c-1.094-.632-1.506.048-1.508,1.357l-.023,7.952a3.24,3.24,0,0,0,1.5,3.066c1.071.617,1.529.017,1.533-1.318" transform="translate(-216.155 -146.399)"></path></g><g transform="translate(26.736 20.309)"><path class="t" d="M226.153,149.08l1.412.815-8.425,19.585-1.434-.828Z" transform="translate(-217.705 -149.08)"></path></g></g></g><g transform="translate(379.424 339.809)"><g transform="translate(0 14.555)"><path class="e" d="M327.817,207.234c24.417,14.1,24.573,36.957.316,51.054s-63.752,14.1-88.169,0-24.517-36.957-.259-51.054S303.4,193.137,327.817,207.234Z" transform="translate(-221.581 -196.661)"></path></g><g transform="translate(6.047)"><g transform="translate(85.219 10.026)"><path class="ah" d="M280.761,194.5l-.025,8.975-15.519,9.018.026-8.975Z" transform="translate(-265.217 -194.495)"></path></g><path class="ah" d="M251.325,209.187c.109-.042.211-.088.318-.13.868-.33,1.759-.627,2.663-.912.623-.2,1.265-.37,1.9-.544.487-.132.968-.274,1.462-.393.673-.163,1.359-.3,2.043-.437.5-.1,1-.215,1.5-.305.207-.036.416-.065.623-.1q1.277-.21,2.57-.364c.251-.029.5-.063.751-.09,1-.107,2-.192,3.01-.251l.558-.029c.678-.033,1.355-.044,2.033-.056s1.355-.017,2.033-.008c.567.006,1.134.025,1.7.046q.941.038,1.88.1.856.063,1.711.144.932.088,1.853.207c.554.069,1.106.148,1.657.234.661.1,1.313.217,1.966.341.682.13,1.366.259,2.037.412.161.038.322.071.483.109.945.226,1.876.479,2.792.751.264.077.521.161.782.243q1.142.361,2.251.77c.215.079.435.153.648.236.669.259,1.318.548,1.964.835.32.142.648.27.962.418.935.443,1.845.914,2.719,1.42l.025-10.468c-.874-.506-1.784-.977-2.721-1.42-.31-.148-.636-.276-.954-.416-.554-.247-1.1-.5-1.673-.728-.1-.04-.2-.071-.3-.111-.211-.082-.429-.155-.644-.234q-1.107-.411-2.253-.77c-.262-.082-.519-.165-.782-.243-.176-.052-.345-.113-.523-.163-.747-.213-1.5-.4-2.269-.588-.159-.038-.322-.071-.483-.109-.37-.084-.74-.174-1.115-.251-.3-.063-.617-.1-.922-.161-.653-.123-1.305-.238-1.966-.341-.264-.042-.521-.1-.786-.138-.289-.04-.582-.061-.87-.1-.615-.079-1.232-.146-1.851-.207-.3-.029-.588-.075-.885-.1-.274-.023-.552-.027-.828-.046-.625-.042-1.251-.075-1.88-.1-.314-.013-.627-.042-.943-.05-.251-.006-.5.008-.755,0-.678-.008-1.353,0-2.031.008-.337.006-.673-.006-1.01.006s-.684.033-1.025.05c-.186.01-.372.017-.559.029-.845.05-1.69.111-2.529.194-.161.015-.32.04-.481.056-.251.027-.5.061-.751.09q-1.293.154-2.566.364c-.209.033-.42.063-.627.1-.1.017-.2.029-.3.048-.4.071-.793.174-1.192.253-.688.14-1.376.276-2.05.439-.494.119-.973.259-1.456.391-.642.176-1.284.349-1.912.546-.134.042-.274.073-.408.117-.763.247-1.514.515-2.253.795-.107.042-.209.088-.318.13-.809.316-1.6.657-2.372,1.012-.228.107-.456.213-.68.322-.857.414-1.7.845-2.5,1.313-.153.088-.3.178-.452.266s-.27.174-.406.257c-.228.142-.456.284-.676.429-.2.13-.4.264-.588.4-.213.146-.425.293-.63.441-.186.138-.368.276-.55.414s-.391.3-.581.454c-.174.14-.343.282-.51.425s-.36.312-.535.469c-.071.063-.149.125-.22.19s-.119.123-.184.184c-.293.276-.571.554-.839.837-.092.094-.186.188-.274.282-.339.37-.661.745-.96,1.121l-.042.048c-.069.088-.126.178-.192.264-.18.238-.358.477-.523.717-.09.132-.174.266-.259.4-.142.217-.278.435-.406.655-.036.061-.077.119-.111.18-.05.09-.092.18-.14.27-.1.186-.2.372-.286.558-.075.155-.149.31-.218.466-.084.186-.163.374-.238.563-.033.084-.073.167-.1.251s-.048.151-.075.226c-.065.18-.123.36-.178.54-.05.161-.1.324-.144.487-.048.18-.09.362-.132.542-.021.1-.05.195-.071.293-.013.065-.019.132-.029.2-.036.184-.063.368-.088.554-.023.163-.046.324-.063.487-.019.186-.029.372-.04.56-.006.109-.019.218-.023.326s0,1.709,0,1.818L235,226.913c0-.218.015-.435.027-.653.01-.188.021-.374.04-.561.017-.163.04-.326.063-.487.025-.186.052-.37.086-.554.031-.165.067-.328.1-.492.042-.18.084-.362.132-.542.044-.163.094-.326.144-.489s.113-.358.176-.535c.059-.161.119-.32.182-.481.075-.186.155-.374.236-.561.071-.157.142-.312.22-.469.09-.186.186-.37.287-.556.082-.151.163-.3.251-.45.128-.22.266-.437.406-.655.086-.134.169-.268.259-.4.165-.241.341-.479.523-.715.077-.1.151-.209.234-.314.3-.376.621-.751.96-1.121.088-.094.182-.188.272-.282.27-.282.548-.56.841-.837.132-.126.266-.251.4-.374.174-.157.353-.312.533-.466s.339-.287.515-.427.383-.3.579-.454c.18-.138.362-.276.55-.414q.307-.22.627-.439c.195-.134.389-.27.592-.4.22-.142.445-.284.673-.427.282-.176.563-.351.858-.523.8-.469,1.644-.9,2.5-1.313.224-.109.452-.215.678-.32C249.728,209.844,250.516,209.5,251.325,209.187Z" transform="translate(-212.979 -183.815)"></path><g transform="translate(17.445 49.412)"><path class="ah" d="M248.357,213.326l-.026,8.975-15.519,9.018.025-8.975Z" transform="translate(-232.813 -213.326)"></path></g><path class="a" d="M224.472,214.962l.025-8.975c-.025,8.814,5.794,17.642,17.445,24.368l-.025,8.977C230.266,232.6,224.447,223.776,224.472,214.962Z" transform="translate(-224.472 -171.926)"></path><g transform="translate(0 34.061)"><path class="ah" d="M241.943,230.356l-.025,8.977c-11.652-6.728-17.471-15.557-17.446-24.371l.025-8.975c-.025,8.814,5.794,17.642,17.445,24.368" transform="translate(-224.472 -205.987)"></path></g><g transform="translate(0.027)"><path class="aa" d="M325.22,199.727,309.7,208.746c-14.524-8.385-38-8.385-52.426,0s-14.352,21.982.172,30.369l-15.519,9.017c-23.155-13.369-23.27-35.037-.272-48.4S302.065,186.358,325.22,199.727Z" transform="translate(-224.485 -189.702)"></path></g><path class="aj" d="M265.242,200.121l-.025,6.229c7.3,4.217,10.951,9.753,10.937,15.283l.025-8.975C276.193,207.128,272.546,204.338,265.242,200.121Z" transform="translate(-179.997 -178.329)"></path><g transform="translate(84.922 52.415)"><path class="aj" d="M280.72,223.781l-.025,6.227-15.62-9.018.026-6.228Z" transform="translate(-265.075 -214.762)"></path></g><path class="aj" d="M290.156,207.184c-.015.3-.033.6-.063.893-.027.259-.063.517-.1.774-.042.3-.084.592-.138.887-.048.261-.1.521-.163.78-.065.289-.134.577-.211.864-.069.261-.146.521-.228.78-.088.284-.182.571-.282.855-.092.255-.188.51-.289.763-.119.3-.245.6-.379.9-.111.249-.226.5-.347.747q-.22.446-.458.887c-.13.238-.261.479-.4.715-.2.351-.423.7-.648,1.05-.136.209-.268.422-.41.632-.264.385-.548.765-.837,1.144-.125.165-.24.333-.372.5-.477.6-.989,1.2-1.531,1.788-.14.153-.291.3-.435.452q-.64.671-1.339,1.332c-.211.2-.425.4-.644.6-.278.251-.563.5-.853.745-.268.228-.535.454-.814.678-.3.245-.613.485-.927.726-.289.22-.579.441-.878.657-.324.238-.661.471-1,.7-.31.213-.621.427-.941.636-.349.23-.711.456-1.073.68-.452.282-.9.563-1.37.837-.153.09-.307.172-.46.261l-.025,8.975c.153-.09.307-.172.46-.261.243-.14.483-.282.722-.425.222-.134.427-.274.644-.408.364-.228.726-.454,1.077-.684.32-.209.629-.422.939-.634.339-.234.676-.469,1-.707.3-.218.588-.437.876-.657.314-.241.625-.481.927-.726.276-.224.546-.45.814-.676.289-.249.575-.5.853-.747.113-.1.238-.2.349-.305s.192-.2.295-.293q.7-.659,1.339-1.332c.144-.151.295-.3.433-.45.542-.59,1.056-1.186,1.533-1.79.021-.025.046-.05.067-.075.109-.138.2-.28.305-.42.289-.379.571-.759.835-1.144.144-.209.276-.423.412-.634.226-.347.443-.7.648-1.046.056-.1.123-.19.178-.287.079-.142.144-.289.222-.431.159-.295.312-.588.456-.885.121-.249.238-.5.349-.749.134-.3.259-.6.377-.9.054-.134.119-.266.169-.4.046-.119.077-.241.121-.362.1-.284.193-.569.282-.853.08-.261.159-.521.228-.782.077-.287.146-.575.209-.862.035-.157.084-.312.115-.466.021-.1.029-.211.048-.316.054-.293.1-.59.14-.885.036-.259.071-.517.1-.776.029-.3.046-.594.063-.891.01-.174.033-.349.038-.523s.008-.345.008-.519l.025-8.975C290.2,206.49,290.175,206.837,290.156,207.184Z" transform="translate(-172.001 -171.754)"></path><g transform="translate(84.948 12.773)"><path class="ai" d="M280.9,195.809c23.151,13.365,23.266,35.035.266,48.4-.153.09-.305.172-.46.259l-15.62-9.019c.153-.088.307-.169.46-.259,14.43-8.385,14.352-21.982-.163-30.363Z" transform="translate(-265.087 -195.809)"></path></g><path class="af" d="M275.611,227.19c.646-.247,1.282-.506,1.916-.77.379-.159.757-.316,1.129-.479.671-.295,1.328-.6,1.981-.916.312-.151.627-.295.935-.448.947-.475,1.88-.966,2.788-1.481l.025-2c-.906.515-1.839,1.006-2.786,1.481-.31.155-.627.3-.941.448-.65.314-1.307.621-1.977.916-.372.163-.751.32-1.129.479-.632.264-1.272.523-1.916.77q-.593.229-1.194.448-.991.361-2,.694c-.424.14-.845.284-1.274.42-.322.1-.648.2-.975.295q-.891.267-1.794.515c-.335.092-.669.184-1.006.272-.636.165-1.278.322-1.92.475-.3.071-.592.144-.891.211-.939.213-1.91.414-2.861.6v2c.954-.182,1.9-.383,2.838-.6.3-.067.59-.14.885-.209q.966-.229,1.924-.477c.337-.088.671-.18,1.006-.272.6-.165,1.2-.337,1.792-.515.326-.1.653-.194.977-.295.167-.054.339-.1.5-.155.259-.082.51-.18.77-.266q1.01-.336,2-.694Q275.016,227.418,275.611,227.19Z" transform="translate(-183.818 -155.435)"></path><g transform="translate(70.702 56.641)"><path class="ak" d="M288.141,225.8a74.358,74.358,0,0,1-22.643,8.019l-7.222-12.066a46.927,46.927,0,0,0,14.245-4.972Z" transform="translate(-258.276 -216.783)"></path></g><path class="ae" d="M290.744,228.851c-.592.1-1.182.2-1.778.284-.694.1-1.393.182-2.092.268-.594.073-1.188.151-1.786.213-1.1.113-2.211.211-3.323.289-.1.008-.2.019-.3.025-1.23.084-2.466.138-3.7.176-.314.01-.63.013-.943.019q-1.368.028-2.738.023c-.379,0-.755-.006-1.134-.013-1.008-.017-2.016-.046-3.024-.094-.19-.008-.383-.013-.575-.023-1.188-.061-2.374-.146-3.553-.249-.312-.027-.623-.061-.933-.09q-1.374-.135-2.736-.3c-.328-.042-.659-.082-.987-.126-1.177-.159-2.349-.333-3.512-.535l-.023,0c-1.155-.2-2.3-.429-3.432-.669-.4-.088-.805-.182-1.207-.274-.78-.178-1.554-.362-2.32-.561q-.631-.16-1.257-.33c-.663-.182-1.32-.376-1.974-.573-.6-.182-1.2-.364-1.792-.558s-1.2-.406-1.8-.615-1.165-.416-1.738-.634c-.872-.335-1.738-.676-2.585-1.037-.084-.036-.172-.069-.255-.1-.991-.431-1.96-.887-2.914-1.357-.23-.113-.46-.228-.688-.345-.956-.485-1.9-.983-2.809-1.51l-.025,3.74c.912.525,1.853,1.025,2.809,1.508.228.117.456.232.688.347.954.469,1.922.924,2.914,1.355l.253.1c.625.268,1.257.533,1.9.784.226.09.46.165.688.251.575.222,1.159.431,1.744.638s1.186.416,1.788.613,1.2.379,1.8.558c.368.111.726.234,1.094.341.289.082.586.151.876.232q.627.169,1.261.333c.766.2,1.537.381,2.315.558.4.092.8.186,1.209.274.178.038.349.082.527.119q1.44.3,2.9.55l.036.006q1.44.251,2.895.456c.2.029.406.05.607.077.328.044.657.084.987.125q1.362.169,2.734.3c.312.029.621.063.935.09.159.013.318.034.479.046q1.531.125,3.072.2c.195.01.389.015.586.023.717.033,1.437.067,2.156.086.287.006.573,0,.858.008q.568.009,1.136.013,1.368.006,2.736-.023c.316-.006.63-.008.945-.019.125,0,.253,0,.379-.006q1.666-.056,3.323-.169c.1-.006.2-.017.3-.025.979-.067,1.956-.144,2.928-.243.134-.013.264-.031.4-.046.6-.063,1.192-.14,1.786-.213.7-.086,1.4-.167,2.09-.268.6-.086,1.188-.186,1.78-.282.51-.084,1.025-.155,1.533-.245.339-.063.675-.126,1.014-.19l.025-3.738C292.449,228.579,291.6,228.713,290.744,228.851Z" transform="translate(-215.367 -156.475)"></path><g transform="translate(17.471 54.64)"><path class="v" d="M286.057,221.053l7.222,12.066c-20.516,3.943-44.06,1.19-60.454-8.274l15.519-9.019C258.572,221.73,273.24,223.468,286.057,221.053Z" transform="translate(-232.825 -215.826)"></path></g></g></g><g transform="translate(464.425 52.183)"><g transform="translate(0)"><path class="al" d="M284.841,54.212l-.471-.264c-.2-.109-.406-.213-.607-.314s-.4-.195-.6-.282-.4-.172-.59-.251-.4-.155-.6-.224c-.038-.015-.075-.025-.113-.038l-.044-.015c-.146-.048-.291-.1-.435-.142-.2-.063-.408-.117-.611-.167s-.406-.1-.6-.136q-.326-.063-.646-.107c-.149-.019-.291-.029-.435-.044l-.065-.006c-.052,0-.107-.013-.159-.017-.234-.015-.464-.023-.692-.023-.259,0-.514.015-.768.038a7.481,7.481,0,0,0-.849.123l-.021,0-.027.008a7.681,7.681,0,0,0-.985.27,7.039,7.039,0,0,0-1.194.554l-9.793,5.691a7.249,7.249,0,0,1,2.177-.824l.029-.006a8.768,8.768,0,0,1,2.487-.128l.067.006a12,12,0,0,1,2.729.6l.044.015a17.154,17.154,0,0,1,2.978,1.372L548.619,217.849l9.792-5.691Z" transform="translate(-259.696 -52.183)"></path><path class="am" d="M424.869,153.507c-.008-.238-.019-.477-.033-.715s-.034-.479-.057-.719-.05-.483-.082-.726-.067-.494-.1-.74l0-.021,0-.017c-.038-.236-.079-.473-.123-.711-.048-.255-.1-.512-.157-.77s-.117-.517-.18-.774-.134-.523-.207-.784c-.056-.2-.115-.406-.178-.609l-.013-.048-.038-.123q-.116-.383-.245-.765c-.084-.251-.171-.5-.261-.753s-.178-.481-.272-.719-.188-.479-.289-.717c-.075-.184-.155-.366-.234-.55l-.015-.033-.054-.123q-.157-.361-.326-.715c-.121-.261-.247-.519-.374-.776-.148-.3-.3-.59-.456-.885-.169-.316-.349-.625-.527-.935-.031-.056-.059-.111-.092-.165s-.071-.132-.109-.2c-.349-.592-.715-1.175-1.1-1.744-.3-.452-.613-.9-.935-1.332-.215-.291-.433-.579-.657-.862-.186-.236-.377-.473-.569-.7s-.379-.45-.571-.667-.381-.429-.573-.638c-.04-.042-.08-.079-.117-.121l-.042-.044c-.148-.157-.295-.314-.445-.466q-.308-.314-.621-.615c-.216-.207-.431-.408-.65-.6s-.435-.387-.657-.573c-.111-.094-.222-.182-.335-.272l-.075-.063c-.082-.067-.165-.138-.249-.2-.213-.169-.431-.335-.648-.5s-.427-.31-.642-.456-.418-.282-.63-.416-.416-.259-.625-.383c-.048-.029-.1-.056-.146-.086l-9.793,5.691A22.745,22.745,0,0,1,403.3,136.4l.073.059a28.155,28.155,0,0,1,2.709,2.533l.042.044a34.479,34.479,0,0,1,4.629,6.264c.031.054.061.111.092.165a35.384,35.384,0,0,1,1.734,3.432l.019.042a32.5,32.5,0,0,1,1.336,3.625l.015.048a28.118,28.118,0,0,1,.843,3.648l0,.015a22.736,22.736,0,0,1,.291,3.589l-.531,186.921a16.589,16.589,0,0,1-.3,3.183l-.019.09a11.75,11.75,0,0,1-.832,2.6l-.021.05a8.748,8.748,0,0,1-1.108,1.715c-.136.169-.266.351-.41.508a7.279,7.279,0,0,1-1.615,1.33l9.793-5.691a7.24,7.24,0,0,0,1.615-1.332c.146-.155.274-.335.41-.506a8.314,8.314,0,0,0,.533-.659,9.542,9.542,0,0,0,.556-1.012l.021-.046.019-.046c.111-.241.218-.487.316-.747s.178-.51.257-.778c.071-.245.138-.5.2-.755.023-.1.044-.215.065-.324l.019-.09c.021-.1.044-.2.063-.31.04-.23.073-.466.1-.707s.054-.469.073-.711.033-.462.044-.7.015-.473.017-.713v-.044l.529-186.921C424.879,153.952,424.875,153.731,424.869,153.507Z" transform="translate(-111.437 31.305)"></path><g transform="translate(0 5.692)"><path class="an" d="M551.144,214.881c8.161,4.712,14.75,16.124,14.725,25.5L565.337,427.3c-.025,9.381-6.657,13.16-14.821,8.446L276.943,277.8c-8.161-4.712-14.75-16.124-14.722-25.5l.529-186.923c.027-9.378,6.657-13.158,14.821-8.446Z" transform="translate(-262.221 -54.904)"></path></g><g transform="translate(118.833 38.74)"><path class="ao" d="M409.852,120.989a10.193,10.193,0,0,1,4.629,8.017l-.165,58.753c-.008,2.947-2.094,4.135-4.66,2.654l-85.989-49.647a10.193,10.193,0,0,1-4.629-8.015L319.2,74c.008-2.947,2.092-4.135,4.658-2.654Z" transform="translate(-319.037 -70.705)"></path></g><g transform="translate(30.15 53.601)"><g transform="translate(0.038)"><path class="t" d="M293.328,87.162l-.006,2.667a2.044,2.044,0,0,1-3.068,1.761l-12.581-7.3a2.043,2.043,0,0,1-1.019-1.774l.008-2.667a2.044,2.044,0,0,1,3.068-1.761l12.581,7.3A2.041,2.041,0,0,1,293.328,87.162Z" transform="translate(-276.654 -77.811)"></path></g><g transform="translate(0 13.271)"><path class="ap" d="M333.145,116.468l-.008,2.673a2.042,2.042,0,0,1-3.064,1.763L277.659,90.642a2.04,2.04,0,0,1-1.023-1.774l.008-2.673a2.043,2.043,0,0,1,3.064-1.763l52.416,30.262A2.045,2.045,0,0,1,333.145,116.468Z" transform="translate(-276.636 -84.156)"></path></g></g><path class="aq" d="M273.1,146.919l20.867-10.643,13.649,22.048,15.224,15.486,15.224-9.186,32.548-10.5,14.7,21L400,187.2l13.387,19.686L431.5,168.824l22.048,10.5,11.549-9.449,23.886,6.3,35.435-3.15" transform="translate(-250.351 39.608)"></path><g transform="translate(126.208 63.685)"><path class="ar" d="M342.489,85.345c-7.923-4.572-15.421-3.405-18.518,3.8-3.878,9.01.531,24.189,9.864,34.688L336,118.795c-6.323-7.377-9.268-17.8-6.586-24.034,2.188-5.08,7.471-5.9,13.055-2.677a22.646,22.646,0,0,1,4.1,3.077l2.165-5.041A32.637,32.637,0,0,0,342.489,85.345Z" transform="translate(-322.563 -82.632)"></path><g transform="translate(11.271 7.488)"><path class="as" d="M342.848,86.212l-2.163,5.036c.341.318.682.65,1.019,1,7.187,7.4,10.7,18.778,7.845,25.414-.107.236-.216.464-.335.69-.04.079-.086.157-.132.236-2.079,3.658-6.061,4.551-10.476,2.782a16.235,16.235,0,0,1-2.1-1.025c-.188-.109-.376-.224-.567-.341-.345-.215-.609-.393-.866-.569l-.119-.084c-.567-.4-1.129-.835-1.7-1.32-.069-.061-.14-.123-.213-.186-.209-.182-.416-.37-.625-.565-.077-.071-.155-.14-.232-.218-.272-.255-.544-.523-.811-.8-.435-.45-.851-.91-1.259-1.38l-2.167,5.041c.414.462.83.922,1.261,1.366.385.393.77.774,1.161,1.14.109.1.217.209.331.312.295.274.594.542.893.8.1.088.2.178.3.261.8.682,1.613,1.311,2.416,1.874.063.046.126.088.19.13.366.259.734.5,1.1.73l.128.077c.249.157.5.305.749.45q.891.515,1.776.935c.443.209.862.389,1.28.556,6.735,2.671,12.765.985,15.461-5.289,4.047-9.41-.937-25.554-11.125-36.054Q343.36,86.7,342.848,86.212Z" transform="translate(-327.952 -86.212)"></path></g></g><g transform="translate(173.644 93.548)"><g transform="translate(0.067)"><path class="t" d="M354.911,102.313l0,1.541a1.181,1.181,0,0,1-1.774,1.019l-7.27-4.219a1.176,1.176,0,0,1-.588-1.025l0-1.541a1.18,1.18,0,0,1,1.774-1.016l7.27,4.217A1.181,1.181,0,0,1,354.911,102.313Z" transform="translate(-345.275 -96.91)"></path></g><g transform="translate(0.044 7.669)"><path class="t" d="M377.925,119.253l0,1.546a1.18,1.18,0,0,1-1.771,1.019l-30.294-17.489a1.183,1.183,0,0,1-.592-1.027l0-1.544a1.182,1.182,0,0,1,1.772-1.021l30.3,17.492A1.178,1.178,0,0,1,377.925,119.253Z" transform="translate(-345.264 -100.577)"></path></g><g class="at" transform="translate(0 23.019)"><path class="t" d="M365.414,119.382l0,1.544a1.179,1.179,0,0,1-1.769,1.019l-17.805-10.278a1.183,1.183,0,0,1-.592-1.027l.006-1.544a1.18,1.18,0,0,1,1.769-1.021l17.805,10.28A1.178,1.178,0,0,1,365.414,119.382Z" transform="translate(-345.243 -107.916)"></path></g><g transform="translate(0.023 15.345)"><path class="ai" d="M373.216,120.21l0,1.546a1.179,1.179,0,0,1-1.769,1.019L345.844,108a1.178,1.178,0,0,1-.59-1.025l0-1.546a1.18,1.18,0,0,1,1.771-1.019l25.6,14.779A1.178,1.178,0,0,1,373.216,120.21Z" transform="translate(-345.254 -104.246)"></path></g></g><g transform="translate(258.085 191.058)"><path class="z" d="M401.671,145.72c-8.824-5.1-16.025-.991-16.055,9.15s7.126,22.488,15.95,27.583,15.988,1.012,16.017-9.127S410.5,150.817,401.671,145.72Z" transform="translate(-385.616 -143.531)"></path><g transform="translate(8.757 11.264)"><path class="au" d="M397.061,149.906c-3.988-2.3-7.245-.448-7.258,4.137a15.875,15.875,0,0,0,7.212,12.47c3.991,2.3,7.228.458,7.241-4.127A15.879,15.879,0,0,0,397.061,149.906Z" transform="translate(-389.803 -148.917)"></path></g></g></g><g transform="translate(30.75 87.895)"><path class="av" d="M294.136,103.805v2.75a2.108,2.108,0,0,1-3.158,1.828l-13-7.49a2.106,2.106,0,0,1-1.056-1.826v-2.75a2.106,2.106,0,0,1,3.158-1.826l13,7.488A2.108,2.108,0,0,1,294.136,103.805Z" transform="translate(-276.923 -94.207)"></path><g transform="translate(0.002 13.687)"><path class="av" d="M335.3,133.91v2.757a2.108,2.108,0,0,1-3.156,1.828l-54.16-31.049a2.111,2.111,0,0,1-1.06-1.826v-2.759a2.108,2.108,0,0,1,3.156-1.828l54.16,31.049A2.108,2.108,0,0,1,335.3,133.91Z" transform="translate(-276.924 -100.751)"></path></g><g class="at" transform="translate(0.01 41.081)"><path class="av" d="M312.971,134.206l0,2.757a2.108,2.108,0,0,1-3.156,1.828l-31.831-18.247a2.108,2.108,0,0,1-1.058-1.828V115.96a2.1,2.1,0,0,1,3.154-1.828l31.831,18.247A2.106,2.106,0,0,1,312.971,134.206Z" transform="translate(-276.928 -113.849)"></path></g><g transform="translate(0.006 27.385)"><path class="av" d="M326.9,135.642V138.4a2.108,2.108,0,0,1-3.156,1.828l-45.763-26.234a2.11,2.11,0,0,1-1.058-1.828V109.41a2.107,2.107,0,0,1,3.154-1.828l45.763,26.234A2.107,2.107,0,0,1,326.9,135.642Z" transform="translate(-276.926 -107.3)"></path></g></g><g transform="translate(193.778 281.044)"><g class="d"><g transform="translate(40.918 45.206)"><path class="ah" d="M374.576,212.46l7.384-4.291-.142,50.135-7.385,4.291Z" transform="translate(-374.433 -208.169)"></path></g><path class="aa" d="M398.717,234.715l0-.061,0-.061,0-.061-.006-.061-.01-.063-.01-.065-.013-.065,0-.015v0l-.013-.048-.017-.065-.019-.069-.023-.067-.021-.063-.025-.065-.025-.065-.029-.065-.029-.067-.034-.067v0l-22.988-45.765-.029-.054c-.019-.038-.04-.075-.061-.113-.038-.061-.075-.119-.113-.178l-.075-.1-.054-.071-.05-.061-.048-.059-.027-.029,0,0-.021-.023-.054-.054-.054-.054-.059-.054-.059-.052-.058-.048-.056-.042-.056-.042-.056-.036-.054-.033-.013-.006-.042-.025-.052-.027-.052-.025-.054-.021-.052-.021-.052-.017-.054-.015-.054-.013-.056-.008-.021,0h0l-.033,0a.626.626,0,0,0-.063,0l-.065,0c-.025,0-.05.006-.073.01a.558.558,0,0,0-.09.025.718.718,0,0,0-.109.048l-7.385,4.292a.7.7,0,0,1,.433-.082h0a1.289,1.289,0,0,1,.491.174,2.288,2.288,0,0,1,.542.448l0,0a3.037,3.037,0,0,1,.458.669l22.988,45.765a2.9,2.9,0,0,1,.234.642v0a1.907,1.907,0,0,1,.048.561v0a1.129,1.129,0,0,1-.117.435l0,.008a.692.692,0,0,1-.257.278l7.385-4.292a.66.66,0,0,0,.222-.215c.013-.019.023-.042.036-.063l0-.008.013-.021c.013-.027.023-.052.034-.082l.023-.067.019-.069.013-.063.008-.065.006-.059,0-.01v0l0-.048Z" transform="translate(-342.579 -186.555)"></path><g transform="translate(0 4.291)"><path class="aa" d="M379.346,188.785a2.722,2.722,0,0,1,1,1.121l22.988,45.765c.68,1.362.073,2.46-1.01,1.834l-6.4-3.692-.142,50.134-33.582-19.389.142-50.136-6.18-3.568c-1.1-.634-1.7-2.426-1-2.993l23.172-19.115A.877.877,0,0,1,379.346,188.785Z" transform="translate(-354.869 -188.607)"></path></g></g></g></g><g transform="translate(444.327 399.687)"><g transform="translate(0 28.122)"><path class="t" d="M252.612,248.552l66.436,67.814,64.524-16.776-66.435-67.814Z" transform="translate(-252.612 -231.776)"></path><g transform="translate(33.164 14.408)"><g class="d" transform="translate(5.588)"><g transform="translate(1.918)"><path class="f" d="M302.719,245.186l-6.36,2.407c-4.787-3.75-13.068-5.078-18.686-2.953-.115.044-.224.09-.337.136l-5.279-4.342c.113-.046.226-.092.343-.134C281.527,236.848,295.02,239.042,302.719,245.186Z" transform="translate(-272.057 -238.665)"></path></g><g transform="translate(27.016 7.199)"><path class="f" d="M290.428,242.107c6.172,5.461,5.815,12.008-.458,15.825l-5.44-4.476c2.876-2.363,2.809-5.9-.473-8.941Z" transform="translate(-284.057 -242.107)"></path></g><g transform="translate(0 17.416)"><path class="ag" d="M303.218,253.083a19.031,19.031,0,0,1-2.1.939c-9,3.4-22.231,1.322-29.982-4.622l6.369-2.407c4.829,3.547,12.855,4.765,18.339,2.69a10.594,10.594,0,0,0,2.016-1Z" transform="translate(-271.14 -246.992)"></path></g></g><g transform="translate(0 2.173)"><path class="ag" d="M280.333,244.069c-4.459,2.326-4.856,6.653-.745,10.211l-6.36,2.407c-7.023-5.959-6.151-13.306,1.8-16.983Z" transform="translate(-268.468 -239.704)"></path></g></g></g><g transform="translate(62.324 231.466)"><g transform="translate(0 143.526)"><path class="s" d="M284.825,400.173s-5.21,3.581-.326,12.045,9.117,3.257,20.185,11.721,14.975,10.092,20.836,9.441,9.443-3.581,10.42-6.837-1.953-8.791-1.953-8.791Z" transform="translate(-282.41 -394.835)"></path><path class="aw" d="M330.951,403.283s2.28,11.071,3.581,19.535c.326,3.907-4.884,9.224-12.371,8.9s-11.721-2.606-14.325-5.861-18.882-9.55-21.813-12.156-3.583-10.418-2.28-12.371a9.829,9.829,0,0,1,11.395-2.93c5.21,2.28,9.441,6.511,19.861,7.163S330.951,403.283,330.951,403.283Z" transform="translate(-281.654 -397.621)"></path></g><g transform="translate(51.657 1.442)"><g transform="translate(0 113.868)"><path class="ax" d="M309.524,386.682s-5.21,3.581-.326,12.045,9.117,3.257,20.185,11.721,14.978,10.094,20.838,9.441,9.441-3.581,10.418-6.837-1.953-8.789-1.953-8.789Z" transform="translate(-307.108 -381.345)"></path><path class="aw" d="M355.648,389.791s2.28,11.07,3.583,19.535c.324,3.907-4.884,9.226-12.373,8.9s-11.719-2.6-14.325-5.861-18.882-9.55-21.813-12.154-3.581-10.42-2.28-12.371a9.828,9.828,0,0,1,11.4-2.93c5.208,2.278,9.441,6.511,19.859,7.161S355.648,389.791,355.648,389.791Z" transform="translate(-306.351 -384.13)"></path></g><path class="ax" d="M312,359.143c2.606,20.836,13.024,75.534,14.76,94.634,0,0,4.342,6.946,17.364,5.208l6.18-2.575a5.99,5.99,0,0,0,3.652-6.273c-1.309-10.533-4.256-37.056-2.886-52.794,1.736-19.968-3.474-32.122-3.474-32.122.435-6.511,1.3-29.085-11.719-35.163,0,0-31.906-5.861-23.877,29.085" transform="translate(-303.183 -329.688)"></path></g><path class="ax" d="M365,340.361l-3.474,6.946s-53.393,2.6-67.718,18.232c0,0-9.55,1.736-6.946,22.574s13.022,75.532,14.76,94.632c0,0,4.34,6.946,17.364,5.21l6.181-2.575a5.99,5.99,0,0,0,3.652-6.272c-1.309-10.533-4.256-37.056-2.888-52.795,1.738-19.968-3.472-32.124-3.472-32.124a272.9,272.9,0,0,1,48.62,14.76c25.176,10.418,46.882-1.736,56.432-6.946s13.022-8.682,13.022-8.682a39.7,39.7,0,0,0,23.442-9.55c11.286-9.55,13.024-34.728.868-49.486S365,340.361,365,340.361Z" transform="translate(-278.043 -328.999)"></path></g><g transform="translate(146.995 75.703)"><path class="aa" d="M333.117,289.685s8.628-3.2,8.061-14.722c-2.619-11.349-5.785-12.114-5.785-12.114s12.07-11.152,26.63-7.638c0,0,8.991,18.247,19.163,26.061C381.185,281.271,373.055,302.709,333.117,289.685Z" transform="translate(-311.733 -254.526)"></path><g transform="translate(0 13.889)"><path class="aa" d="M356.965,288.771s31.906-26.7,38.42-27.349c7.812-.651,17.579,1.954,20.185,13.024s-3.257,19.533-9.117,22.789-57.3,28-66.417,28-14.975-7.814-9.117-17.581S356.965,288.771,356.965,288.771Z" transform="translate(-316.698 -260.987)"></path><path class="aa" d="M372.927,268.42s-33.86,11.286-43.41,26.914-7.814,32.992-.868,57.3-6.946,46.014-3.472,59.036,27.782,25.178,63.378,19.1,38.2-19.97,40.806-27.784-6.946-45.146,1.736-75.532-8.682-51.224-15.628-56.434S394.633,258.87,372.927,268.42Z" transform="translate(-322.893 -258.435)"></path><path class="aa" d="M414.636,271.023c-6.946-5.208-20.836-12.154-42.542-2.6,0,0-33.86,11.286-43.41,26.914a43.854,43.854,0,0,0-5.028,11.744c13.71-17.82,33.168-25.646,45.834,4.752,11.821,28.37-18.253,111.755-44.529,85.538-1.106,5.469-1.686,10.3-.617,14.3,3.472,13.024,27.782,25.178,63.378,19.1s38.2-19.97,40.806-27.784-6.946-45.146,1.736-75.532S421.582,276.234,414.636,271.023Z" transform="translate(-322.06 -258.435)"></path><path class="aa" d="M331.353,285.911s9.115,5.861,31.906,2.6,24.092-19.535,22.139-20.836-5.861-6.513-5.861-6.513-24.092,11.071-32.557,14.327-13.024,5.208-13.024,5.208Z" transform="translate(-313.658 -261.166)"></path></g></g><g transform="translate(146.19)"><path class="ay" d="M324.251,257.2s-1.953,23.44,10.42,39.068,24.743,6.511,32.557,2.6,11.069-10.418,13.675-29.3,2.6-37.116-11.071-42.977-28.65-7.161-37.114,7.164S324.251,257.2,324.251,257.2Z" transform="translate(-320.728 -213.84)"></path><path class="az" d="M335.147,233.694s-11.071,8.464-10.418,20.836-3.257,14.325-1.953,20.836,11.721,8.467,12.371,17.581,14.325,12.371,21.488,14.975,18.882-5.858,22.139-10.418,2.6-16.278,6.511-26.7,1.953-23.442-1.3-32.557-9.767-11.071-9.767-11.071-3.254-7.161-11.068-8.464S331.24,218.716,335.147,233.694Z" transform="translate(-322.508 -218.331)"></path></g><g transform="translate(99.22 147.536)"><g transform="translate(39.467 191.296)"><g transform="translate(0 23.462)"><g class="d"><path class="e" d="M443.414,410.909c-1.182,13.139-13.547,22.062-24.7,26.868-12.148,5.235-25.506,7.348-38.687,7.178-13.453-.174-27.188-2.746-39.319-8.715-10.585-5.208-21.821-14.658-21.785-27.508-.025,9.358.63,17.09,7.373,24.4,8.682,9.406,21.752,14.471,34.046,17.008,23.988,4.953,56.647,2.56,74.869-15.906,7.331-7.429,8.333-15.26,8.36-25.142Q443.531,410,443.414,410.909Z" transform="translate(-318.921 -372.795)"></path><g transform="translate(0.001)"><path class="f" d="M425.156,402.121c24.417,14.1,24.573,36.957.316,51.054s-63.752,14.1-88.169,0-24.517-36.955-.257-51.052S400.74,388.026,425.156,402.121Z" transform="translate(-318.921 -391.55)"></path></g></g></g><g transform="translate(54.15)"><g class="d"><g transform="translate(9.593 5.539)"><path class="g" d="M359.083,382.98l-.155,54.479L349.4,443l.155-54.479Z" transform="translate(-349.397 -382.98)"></path></g><g transform="translate(0 5.539)"><path class="h" d="M354.559,388.519,354.4,443l-9.593-5.539.154-54.479Z" transform="translate(-344.811 -382.981)"></path></g><g transform="translate(0.154)"><path class="i" d="M364.009,385.871l-9.531,5.539-9.593-5.539,9.531-5.539Z" transform="translate(-344.885 -380.332)"></path></g></g></g></g><path class="ba" d="M524.057,299.694a11.2,11.2,0,0,0-14.9-10.184c-31.145,10.926-102.525,36.8-107.112,45.968-4.369,8.741-18.491,57.565-25.444,82.024a11.2,11.2,0,0,1-16.481,6.572L316.976,398.63a11.218,11.218,0,0,0-16.764,11.508L307.14,451.7a11.223,11.223,0,0,0,5.478,7.883L358.78,486.1a88.762,88.762,0,0,0,83.915,2.424l35.587-17.793a88.768,88.768,0,0,0,49.011-82.641Z" transform="translate(-300.051 -288.87)"></path><path class="j" d="M402.045,312.208c-4.369,8.741-18.491,57.565-25.444,82.024A11.2,11.2,0,0,1,360.12,400.8L316.976,375.36a11.218,11.218,0,0,0-16.764,11.508l6.927,41.561a11.107,11.107,0,0,0,.878,2.761q.825,1.3,1.667,2.589a11.117,11.117,0,0,0,2.932,2.533L358.78,462.83A88.657,88.657,0,0,0,390,473.66c37.445-29.053,32.724-150.333,19.146-160.517a18.753,18.753,0,0,0-5.348-2.955A7.329,7.329,0,0,0,402.045,312.208Z" transform="translate(-300.051 -265.601)"></path></g><g transform="translate(32.734 80.334)"><path class="aa" d="M323.758,307.865s31.9-26.7,38.417-27.347c7.814-.653,17.579,1.954,20.185,13.022s-3.257,19.535-9.117,22.789-57.3,28-66.417,28-14.975-7.814-9.115-17.579S323.758,307.865,323.758,307.865Z" transform="translate(-238.684 -230.886)"></path><path class="ay" d="M308.406,291.393a23.429,23.429,0,0,1-1.953-5.534c-.324-2.28.977-5.21-.324-10.418s-3.583-9.768-4.56-13.348c-2.6-3.257-4.884,2.6-2.93,7.488s1.3,7.814-.651,8.138-10.092-4.557-12.371-7.161-15.3-15.3-16.6-13.674-1.3,3.256,3.257,8.14,6.185,7.161,6.511,8.464,0,2.6,1.627,6.511.326,6.511,3.257,10.092,8.464,4.233,11.068,6.513l2.606,2.278Z" transform="translate(-268.263 -256.74)"></path><path class="aa" d="M323.157,353.576s-13.674,2.606-21.053-12.589-19.968-56-21.7-59.9c0,0,4.34-9.55,15.193-9.117,0,0,12.154,23.875,19.1,34.728S346.382,349.236,323.157,353.576Z" transform="translate(-255.014 -240.134)"></path></g></g><g transform="translate(127.294 306.963)"><g transform="translate(132.854 4.877)"><path class="o" d="M204.854,199.13s4.244-2.7,6.754-1.928a109.676,109.676,0,0,0,13.888,2.315c2.7.192,8.1-4.631,9.067-5.4s1.544-2.508,2.7-3.664,1.736-.964,1.736-3.087,2.121-4.051,3.087-5.015,4.821-3.279,4.436-5.016-2.315-.772-3.472-.387-5.595,4.438-7.523,5.595-6.559,2.895-8.874,2.895a19.06,19.06,0,0,1-4.438-.579s-.577,0,1.736-.772,3.666-.192,5.595-.579,2.895-1.541,2.7-2.508-2.7-.964-3.666-.964a76.088,76.088,0,0,1-9.067-.192c-2.315-.385-6.172,3.472-6.944,4.244s-4.823,1.928-6.946,2.123S204.854,199.13,204.854,199.13Z" transform="translate(-121.024 -176.33)"></path><path class="k" d="M165.361,194.713s4.037,13.321,20.92,12.809,58.87-8.291,63.137-8.565c0,0,6.446-8.276,1.027-17.688,0,0-26.79.31-39.626-.809S158.432,172.125,165.361,194.713Z" transform="translate(-164.553 -173.979)"></path></g><path class="k" d="M145.332,226.283s-7.057-41-11.6-45.711c-5.536-5.551-14.67-9.885-23.818-3.129s-10.154,17-7.793,23.277,25.577,58.421,32.528,64.319,16.475,3.731,18.326-7.509S145.332,226.283,145.332,226.283Z" transform="translate(-101.033 -173.998)"></path><path class="o" d="M156.743,209.945s5.536.326,7.488.326,16.931-1.3,19.535-1.3,2.6,2.93,2.6,2.93,2.606,4.231,2.606,5.861a16.141,16.141,0,0,0,.65,5.534c.65,1.627-.326,2.93-.977,4.233s-2.28,1.953-3.907,2.93a5.259,5.259,0,0,1-4.884.324c-1.3-.65-1.3-.977.326-1.954a17.317,17.317,0,0,0,2.93-2.278,8.937,8.937,0,0,1-4.884,2.278c-2.93.326-7.488.326-10.094-.977s-7.161-3.581-7.161-3.581l-5.21-.65Z" transform="translate(-41.29 -135.826)"></path><path class="k" d="M117,223.355s4.037,13.321,20.92,12.809,58.87-8.291,63.137-8.567c0,0,6.446-8.276,1.027-17.688,0,0-26.79.31-39.626-.807S110.072,200.767,117,223.355Z" transform="translate(-84.484 -137.838)"></path></g></g></g></svg>