<svg id="Group_1702" data-name="Group 1702" xmlns="http://www.w3.org/2000/svg" width="49.682" height="49.682" viewBox="0 0 49.682 49.682"><g id="Group_1701" data-name="Group 1701"><path id="Path_5167" data-name="Path 5167" d="M1.6 6.411H27.245v1.6h1.6V4.007A4.011 4.011.0 0 0 24.841.0H4.007A4.011 4.011.0 0 0 0 4.007v36.06H1.6zm0-2.4a2.407 2.407.0 0 1 2.4-2.4H24.841a2.407 2.407.0 0 1 2.4 2.4v.8H1.6z" fill="#5549f3"/><path id="Path_5168" data-name="Path 5168" d="M0 420.007a4.011 4.011.0 0 0 4.007 4.007H24.841a4.011 4.011.0 0 0 4.007-4.007V416H0zm1.6-2.4H27.245v2.4a2.407 2.407.0 0 1-2.4 2.4H4.007a2.407 2.407.0 0 1-2.4-2.4z" transform="translate(0 -374.331)" fill="#5549f3"/><path id="Rectangle_1122" data-name="Rectangle 1122" d="M0 0h8v3H0z" transform="translate(10.564 44.433)" fill="#5549f3"/><path id="Path_5169" data-name="Path 5169" d="M316.808 248a4.808 4.808.0 1 0 4.808 4.808A4.813 4.813.0 0 0 316.808 248zm0 8.013a3.205 3.205.0 1 1 3.205-3.205A3.209 3.209.0 0 1 316.808 256.013z" transform="translate(-280.748 -223.159)" fill="#5549f3"/><path id="Path_5170" data-name="Path 5170" d="M100.007 144a4.007 4.007.0 1 0 4.007 4.007A4.011 4.011.0 0 0 100.007 144zm0 6.411a2.4 2.4.0 1 1 2.4-2.4A2.407 2.407.0 0 1 100.007 150.411z" transform="translate(-86.384 -129.576)" fill="#5549f3"/><path id="Path_5171" data-name="Path 5171" d="M62.5 158.083q.221-.084.44-.184l2.484 1.656 3.2-3.2-1.656-2.484q.1-.22.184-.44l2.925-.585v-4.519l-2.925-.585a8.468 8.468.0 0 0-.4-.874l-1.418.746a6.392 6.392.0 0 1 .445 1.063l.142.454 2.551.51v1.891l-2.552.51-.142.454a6.352 6.352.0 0 1-.445 1.063l-.221.421 1.446 2.17-1.337 1.337-2.17-1.447-.421.221a6.4 6.4.0 0 1-1.063.446l-.454.142-.51 2.551H58.713l-.51-2.551-.454-.142a6.4 6.4.0 0 1-1.063-.446l-.421-.221-2.17 1.447-1.8-1.8-1.133 1.133 2.731 2.731 2.484-1.656q.219.1.44.184l.585 2.925h4.519z" transform="translate(-46.036 -132.16)" fill="#5549f3"/><path id="Path_5172" data-name="Path 5172" d="M32 88.158v4.519l2.925.585a8.466 8.466.0 0 0 .4.874l1.418-.746a6.394 6.394.0 0 1-.445-1.063l-.142-.454-2.551-.51V89.472l2.552-.51.142-.454a6.353 6.353.0 0 1 .445-1.063l.221-.421-1.446-2.17 1.337-1.337 2.171 1.447.421-.222a6.418 6.418.0 0 1 1.062-.445l.454-.142.51-2.551h1.892l.51 2.551.454.142a6.39 6.39.0 0 1 1.062.445l.421.222 2.171-1.447 1.8 1.8 1.133-1.133-2.73-2.731L45.7 83.109c-.147-.067-.292-.127-.44-.184L44.676 80H40.158l-.585 2.925c-.147.057-.293.118-.44.184l-2.485-1.656-3.195 3.195 1.656 2.484q-.1.22-.184.44z" transform="translate(-28.795 -71.987)" fill="#5549f3"/><path id="Rectangle_1123" data-name="Rectangle 1123" d="M0 0h2v1H0z" transform="translate(12.564 30.433)" fill="#5549f3"/><path id="Rectangle_1124" data-name="Rectangle 1124" d="M0 0h2v1H0z" transform="translate(12.564 34.433)" fill="#5549f3"/><path id="Rectangle_1125" data-name="Rectangle 1125" d="M0 0h2v1H0z" transform="translate(12.564 37.433)" fill="#5549f3"/><path id="Rectangle_1126" data-name="Rectangle 1126" d="M0 0h1v2H0z" transform="translate(35.564 12.433)" fill="#5549f3"/><path id="Rectangle_1127" data-name="Rectangle 1127" d="M0 0h1v2H0z" transform="translate(35.564 9.433)" fill="#5549f3"/><path id="Rectangle_1128" data-name="Rectangle 1128" d="M0 0h1v2H0z" transform="translate(35.564 6.433)" fill="#5549f3"/><path id="Path_5173" data-name="Path 5173" d="M271.8 258.3V252.18l-3.952-.789q-.138-.347-.3-.687l-1.442.7a8.535 8.535.0 0 1 .393.946l.151.434 3.551.71v3.493l-3.551.711-.151.434a8.628 8.628.0 0 1-.393.946l-.2.413 2.011 3.015-2.47 2.47-3.016-2.01-.413.2a8.479 8.479.0 0 1-.946.393l-.434.151-.709 3.551h-3.494l-.711-3.551-.434-.151a8.635 8.635.0 0 1-.946-.393l-.413-.2-3.016 2.01-2.935-2.934-1.133 1.133 3.865 3.864 3.354-2.236c.087.038.176.074.264.11l.791 3.952h6.123l.789-3.952c.088-.035.176-.072.264-.11l3.354 2.236 4.33-4.328-2.236-3.354c.038-.087.074-.175.11-.264z" transform="translate(-222.122 -225.592)" fill="#5549f3"/><path id="Path_5174" data-name="Path 5174" d="M225.825 166.154l2.237 3.354c-.038.087-.075.175-.11.264l-3.951.79v6.123l3.952.789q.138.347.3.686l1.442-.7a8.481 8.481.0 0 1-.393-.946l-.151-.434-3.551-.71v-3.494l3.551-.711.151-.434a8.7 8.7.0 0 1 .393-.946l.2-.413-2.011-3.015 2.47-2.47 3.015 2.01.413-.2a8.631 8.631.0 0 1 .947-.394l.432-.151.708-3.549h3.495l.71 3.55.432.151a8.7 8.7.0 0 1 .947.394l.413.2 3.015-2.01 2.935 2.935 1.133-1.133-3.865-3.864-3.354 2.236c-.087-.038-.175-.074-.263-.109L240.683 160h-6.121l-.79 3.952c-.088.035-.176.071-.263.109l-3.354-2.236z" transform="translate(-201.563 -143.973)" fill="#5549f3"/></g></svg>