<svg id="illustration_3" data-name="illustration 3" xmlns="http://www.w3.org/2000/svg" xmlns:xlink="http://www.w3.org/1999/xlink" width="702" height="604" viewBox="0 0 702 604">
  <defs>
    <clipPath id="clip-path">
      <rect id="Rectangle_1337" data-name="Rectangle 1337" width="702" height="604" transform="translate(898 5214)" fill="none"/>
    </clipPath>
    <linearGradient id="linear-gradient" x1="0.881" y1="0.217" x2="0.368" y2="0.603" gradientUnits="objectBoundingBox">
      <stop offset="0.018" stop-color="#fcd772"/>
      <stop offset="0.971" stop-color="#ffe385"/>
    </linearGradient>
  </defs>
  <g id="Mask_Group_14" data-name="Mask Group 14" transform="translate(-898 -5214)" clip-path="url(#clip-path)">
    <g id="Group_2343" data-name="Group 2343" transform="translate(806.958 5172.423)">
      <g id="Group_2335" data-name="Group 2335" transform="translate(101.096 85.685)">
        <rect id="Rectangle_1172" data-name="Rectangle 1172" width="637.124" height="292.797" rx="75.861" transform="translate(91.099 121.223)" fill="#f5f7ff"/>
        <g id="Group_2326" data-name="Group 2326" transform="translate(76.746)">
          <path id="Path_6135" data-name="Path 6135" d="M323.45,134.727c1.371-10.289-9.95-18.48-20.329-18.5-1.98,0-4.187.115-5.674-1.192-1.526-1.341-1.654-3.618-1.85-5.64a35.3,35.3,0,0,0-63.8-17.217c-3.084,4.292-6.273,9.919-11.557,9.813-3.423-.069-6.171-2.658-9.026-4.548-11.29-7.468-28.554-3.263-35.147,8.558-1.921,3.442-3.418,7.736-7.135,9.048-1.72.609-3.606.426-5.417.64-12.553,1.495-14.5,17.445-2.363,20.023,13.448,2.856,33.17-.757,47.218-.42Q265.9,136.667,323.45,134.727Z" transform="translate(-153.004 -77.559)" fill="#f3f0fc"/>
          <path id="Path_6136" data-name="Path 6136" d="M658.6,154.556c1.362-10.23-9.894-18.375-20.216-18.4-1.968,0-4.162.115-5.64-1.184-1.517-1.334-1.646-3.6-1.839-5.608a35.1,35.1,0,0,0-63.437-17.12c-3.066,4.268-6.238,9.862-11.491,9.757-3.4-.069-6.137-2.644-8.976-4.521-11.226-7.425-28.392-3.245-34.948,8.509-1.909,3.423-3.4,7.691-7.1,9-1.709.6-3.584.423-5.385.637-12.482,1.484-14.418,17.346-2.349,19.91,13.372,2.84,32.981-.754,46.948-.418Q601.381,156.486,658.6,154.556Z" transform="translate(7.832 -67.915)" fill="#f3f0fc"/>
        </g>
        <g id="Group_2327" data-name="Group 2327" transform="translate(117.017 134.587)">
          <path id="Path_6137" data-name="Path 6137" d="M688.54,361.588V416.44a52.477,52.477,0,0,1-52.475,52.477H303.688c-.118-.927-.185-1.9-.219-2.93-.69-18.332,1.144-37.894,12.171-52.556,9.764-12.946,25.42-20.219,41.16-24.107,14.73-3.653,30.975-5.219,42.356-15.269,15.958-14.074,15.857-38.3,18.635-59.392,2.778-21.078,11.43-43.7,30.184-53.349.488-.269.977-.506,1.482-.741,4.462-2.07,9.276-3.333,13.62-5.623,20.335-10.69,23.164-38.2,35.335-57.691,17.593-28.148,59.476-37.456,87.32-19.41,6.211,4.023,11.85,9.377,14.679,16.212,5.859,14.124-1.229,31.6,6.162,44.981,10.5,18.99,41.4,15.926,54.391,33.3,7.879,10.555,6.548,25.033,6.044,38.2-.506,13.148,1.363,28.483,12.508,35.487l.083.052A18.385,18.385,0,0,1,688.54,361.588Z" transform="translate(-121.338 -168.588)" fill="#f5f7ff"/>
          <path id="Path_6138" data-name="Path 6138" d="M611.472,459.956H247.931a67.69,67.69,0,0,1-67.689-67.69h0a41.883,41.883,0,0,1,16.448-33.389,74.756,74.756,0,0,1,12.456-7.672c11.547-5.623,24.7-8.451,34.476-16.766,12.777-10.858,16.969-28.467,21.06-44.729,6.329-25.2,14.461-50.773,31.127-70.687,16.649-19.932,43.685-33.114,68.853-26.7,12.391,3.148,24.444,10.808,36.986,8.283,7.271-1.481,13.383-6.211,20.151-9.275,19.948-9.025,44.679-2.055,60.486,13.1,13.165,12.643,20.859,29.931,24.595,47.927q1.138,5.4,1.785,10.842c.522,4.242.875,8.534,2.138,12.609,3.687,11.852,14.443,20.05,25.386,25.942,10.926,5.876,22.812,10.4,32.054,18.7a50.476,50.476,0,0,1,15.5,26.918c4.276,20.387-4.175,42.995,4.9,61.732,3.7,7.676,10,13.787,14.578,20.976A53.709,53.709,0,0,1,611.472,459.956Z" transform="translate(-180.242 -159.628)" fill="#e5f3f9"/>
        </g>
        <g id="Group_2334" data-name="Group 2334" transform="translate(0 131.68)">
          <g id="Group_2330" data-name="Group 2330" transform="translate(610.268)">
            <g id="Group_2328" data-name="Group 2328" transform="translate(2.805)">
              <path id="Path_6139" data-name="Path 6139" d="M526.385,388c4.659-11.268-4.7-26.465,3.565-35.426,4.572-4.954,12.576-5.191,17.526-9.767,9.326-8.62,2.9-27.051,13.014-34.732,4.44-3.37,10.729-3.344,15.3-6.541,11.76-8.232,4.369-30.487,16.4-38.317,5.581-3.633,13.407-2.456,18.742-6.439,10.45-7.8,3.843-28.69,15.622-34.285,7.162-3.4,16.568,1.932,23.278-2.3,9.025-5.688,3.958-22.226,12.765-28.245,5.25-3.588,12.632-1.274,18.514-3.7,6.34-2.614,9.186-9.789,13.357-15.233s13.148-9.156,17.375-3.757c4.483,11.39-11.822,21.092-12.215,33.327-.126,3.9,1.425,7.669,1.588,11.565.64,15.419-19.813,26.993-16.29,42.019.892,3.807,3.319,7.209,3.655,11.105.961,11.124-13.781,16.07-20.127,25.257-8.491,12.292-2.107,33.2-14.906,40.9-4.413,2.657-10.367,2.954-13.616,6.952-6.2,7.635,2.846,21.449-4.4,28.1-3.415,3.137-8.68,2.707-13.122,4.039a16.819,16.819,0,0,0-11.439,17.854c.754,5.36,4.119,10.928,1.75,15.8-3.763,7.734-16.377,4.1-23.076,9.491-4.255,3.426-4.954,9.48-6.594,14.692s-6.164,10.784-11.445,9.388c-1.971-.522-3.565-1.944-5.41-2.812-15.891-7.462-31.772,22.773-45.309,2.589C509.317,422.282,520.038,403.349,526.385,388Z" transform="translate(-515.753 -166.622)" fill="#e5f3f9"/>
              <path id="Path_6140" data-name="Path 6140" d="M675.767,252.845c1.583-.478,1.007-3-.591-2.516L633.5,262.891,678.045,202.1c.985-1.344-1.2-2.723-2.178-1.388l-42.041,57.373a232.355,232.355,0,0,0,9.182-42.132c.2-1.647-2.383-1.718-2.584-.075a228.625,228.625,0,0,1-11.6,49.015l0,.019-38.039,51.913c.041-1.558.6-3.631.708-4.832q.541-6.247,1.215-12.482c.989-9.145,2.206-18.258,3.6-27.349.251-1.638-2.333-1.7-2.583-.077q-2.466,16.119-4.115,32.339c-.448,4.5-2.159,11.084-1.283,15.473.015.075.031.149.046.225q-19.126,26.1-38.253,52.206c1.164-11.942,2.854-23.805,5.148-35.591.315-1.615-2.151-2.392-2.469-.758a384.717,384.717,0,0,0-5.673,40.437l-25.382,34.637c-.985,1.344,1.2,2.725,2.179,1.39l25.6-34.933c4.8-3.677,13.345-3.361,19.03-4.165l19.358-2.74c1.646-.234,1.048-2.749-.59-2.516l-24.2,3.426c-3.433.485-7.085.658-10.413,1.646l37.164-50.719c1.48.556,3.39-.659,4.642-1.159q8.736-3.486,17.636-6.534c9.822-3.337,19.787-6.2,29.855-8.686a1.292,1.292,0,0,0-.59-2.515c-15.687,3.872-30.686,9.19-45.888,14.568L593.3,319a6.816,6.816,0,0,1-1.4.665l39.069-53.319Q653.368,259.6,675.767,252.845Z" transform="translate(-513.007 -150.569)" fill="#bee1f4"/>
            </g>
            <g id="Group_2329" data-name="Group 2329" transform="translate(0 143.176)">
              <path id="Path_6141" data-name="Path 6141" d="M545.44,336.469c3.12-7.333,8.445-14.88,16.346-15.922,5.435-.717,10.863,1.87,16.324,1.393,15.054-1.316,19.193-22.525,32.307-30.033,14.457-8.275,35.657,2.383,48.146-8.637,6.23-5.5,8.664-15.416,16.5-18.178,7.217-2.543,16.021,2.382,22.535-1.631q-6.82,13.362-13.638,26.725c-1.771,3.472-3.582,7-6.3,9.8-4.452,4.583-11.01,6.862-14.921,11.915-5.958,7.7-4.422,20.068-12.008,26.17-6.207,4.993-15.549,3.238-22.661,6.828-14.858,7.5-11.661,32.259-25.5,41.5-10.469,6.992-26.495,1.934-35.626,10.6-3.194,3.031-4.922,7.271-7.628,10.746-12.879,16.536-41.76,8-45.142-11.958-1.459-8.612,2.3-20.531,7.393-27.414C530.575,356.189,539.126,351.305,545.44,336.469Z" transform="translate(-513.856 -263.46)" fill="#c1ecff"/>
              <path id="Path_6142" data-name="Path 6142" d="M654.193,285.36c-18.645,8.868-35.135,20.53-51.236,32.972-.1.027-.2.053-.293.078a193.491,193.491,0,0,1,12.329-27.966c.787-1.456-1.388-2.854-2.179-1.39a197.685,197.685,0,0,0-13.438,30.865,1.234,1.234,0,0,0,.163,1.066c-5.327,4.163-10.626,8.393-15.959,12.624-8.392,6.658-16.778,13.348-24.929,20.29a272.477,272.477,0,0,0,13.724-29.7c.6-1.55-1.869-2.3-2.469-.759A267.549,267.549,0,0,1,554.3,356.568a1.283,1.283,0,0,0-.087,1.162,271.534,271.534,0,0,0-33.135,33.747c-1.044,1.294,1.147,2.669,2.179,1.388,10.222-12.674,21.885-23.916,34.145-34.516q18.685-2,37.464-2.332c1.656-.03,1.746-2.612.077-2.583-11.413.2-22.791.891-34.145,2,8.033-6.813,16.286-13.383,24.531-19.924,6.272-4.977,12.5-9.953,18.79-14.818a102.481,102.481,0,0,1,34.189-2.973c1.656.135,1.731-2.448.075-2.583a104.335,104.335,0,0,0-29.283,1.74c14.553-11.028,29.563-21.274,46.3-29.236C656.906,286.927,655.692,284.646,654.193,285.36Z" transform="translate(-510.533 -253.046)" fill="#bee1f4"/>
            </g>
          </g>
          <g id="Group_2333" data-name="Group 2333" transform="translate(0 19.008)">
            <g id="Group_2331" data-name="Group 2331">
              <path id="Path_6143" data-name="Path 6143" d="M245.157,430.382c-8.889-8.348-26.416-4.975-31.868-15.881-3.015-6.029-.4-13.6-2.927-19.85-4.758-11.775-24.271-12.292-27.871-24.471-1.579-5.345.671-11.217-.7-16.62-3.535-13.914-26.964-14.884-30.025-28.909-1.419-6.505,2.451-13.407.617-19.808-3.594-12.535-25.47-13.755-26.53-26.751-.645-7.9,7.675-14.812,6.1-22.583-2.122-10.455-19.383-11.572-21.894-21.941-1.5-6.182,3.282-12.266,3.1-18.623-.2-6.856-5.9-12.059-9.514-17.887s-3.908-15.539,2.641-17.579c12.238-.158,15.538,18.526,26.839,23.227,3.6,1.5,7.676,1.382,11.377,2.61,14.648,4.863,18.227,28.09,33.527,30.117,3.877.513,7.917-.551,11.68.515,10.744,3.041,10.147,18.579,16.491,27.768,8.488,12.294,30.3,13.728,32.971,28.426.923,5.068-.908,10.741,1.68,15.2,4.944,8.5,21.067,4.934,24.725,14.065,1.725,4.305-.543,9.077-.869,13.7a16.82,16.82,0,0,0,12.646,17.021c5.281,1.193,11.679.018,15.393,3.956,5.9,6.259-1.969,16.768.7,24.942,1.7,5.193,7.112,7.991,11.4,11.37s7.9,9.585,4.727,14.03c-1.186,1.657-3.081,2.644-4.545,4.063-12.607,12.218,10.045,37.777-13.626,43.289C271.174,458.487,257.264,441.753,245.157,430.382Z" transform="translate(-101.096 -179.478)" fill="#e5f3f9"/>
              <path id="Path_6144" data-name="Path 6144" d="M175.479,231.109c.114-1.65-2.447-2-2.562-.339q-1.506,21.71-3.01,43.419l-41.073-63.184c-.908-1.4-2.972.158-2.07,1.547l38.765,59.634A232.333,232.333,0,0,0,129.38,248.68c-1.47-.772-2.45,1.619-.986,2.389a228.67,228.67,0,0,1,41.732,28.2l.016.01,35.076,53.96c-1.442-.591-3.182-1.851-4.268-2.373q-5.649-2.719-11.241-5.558-12.3-6.245-24.3-13.049c-1.443-.815-2.42,1.579-.986,2.388q14.2,8.015,28.786,15.3c4.051,2.015,9.6,5.947,14.013,6.681.077.013.152.024.228.037l35.274,54.263q-16.132-7.977-31.46-17.418c-1.4-.866-3,1.164-1.585,2.039a384.871,384.871,0,0,0,35.806,19.627l23.4,36c.908,1.4,2.973-.158,2.071-1.545l-23.6-36.309c-1.739-5.794,1.584-13.669,2.845-19.271l4.294-19.074c.365-1.622-2.2-1.953-2.562-.339l-5.367,23.842c-.76,3.381-1.894,6.857-2.147,10.32q-17.137-26.358-34.27-52.718c1.044-1.187.585-3.405.56-4.752-.111-6.27-.08-12.539.136-18.807.358-10.367,1.209-20.7,2.451-31a1.293,1.293,0,0,0-2.562-.339c-1.934,16.04-2.272,31.952-2.629,48.072q.02,1.2.041,2.392a6.794,6.794,0,0,1,.126,1.544q-18.013-27.711-36.027-55.42Q173.862,254.447,175.479,231.109Z" transform="translate(-88.921 -164.654)" fill="#bee1f4"/>
            </g>
            <g id="Group_2332" data-name="Group 2332" transform="translate(124.786 63.94)">
              <path id="Path_6145" data-name="Path 6145" d="M206.343,390.878c-5.753-5.515-10.923-13.168-9.1-20.927,1.254-5.337,5.6-9.5,7.084-14.773,4.1-14.544-14.268-25.924-16.644-40.848-2.618-16.45,14.857-32.5,8.973-48.085-2.935-7.773-11.349-13.561-11.155-21.869.177-7.648,7.9-14.139,6.455-21.651l20.164,22.218c2.62,2.887,5.278,5.831,6.931,9.362,2.71,5.785,2.518,12.725,5.858,18.172,5.09,8.3,17.2,11.244,20.222,20.5,2.471,7.573-2.479,15.688-1.641,23.609,1.751,16.552,26.038,22.331,29.78,38.549,2.83,12.267-7.576,25.463-2.706,37.072,1.7,4.06,5.058,7.178,7.348,10.939,10.9,17.9-7.311,41.885-27.17,37.98-8.571-1.685-18.385-9.424-23.02-16.623C219.52,411.764,217.983,402.037,206.343,390.878Z" transform="translate(-185.497 -222.725)" fill="#c1ecff"/>
              <path id="Path_6146" data-name="Path 6146" d="M204.427,256.276c1.691,20.578,6.757,40.13,12.69,59.593-.01.1-.021.2-.03.3A193.432,193.432,0,0,1,195.3,294.737c-1.084-1.252-3.16.288-2.07,1.547a197.666,197.666,0,0,0,24.106,23.5,1.229,1.229,0,0,0,1.054.226c2,6.457,4.085,12.91,6.152,19.4,3.254,10.206,6.541,20.417,10.145,30.5a272.591,272.591,0,0,0-22.914-23.353c-1.236-1.113-2.815.931-1.585,2.04a267.315,267.315,0,0,1,25.452,26.326,1.287,1.287,0,0,0,1.057.494,271.505,271.505,0,0,0,19.824,42.939c.84,1.434,2.9-.127,2.07-1.546-8.231-14.049-14.615-28.936-20.185-44.156q4.75-18.179,11.087-35.863c.559-1.557-1.826-2.556-2.389-.985q-5.779,16.116-10.219,32.639c-3.526-9.925-6.748-19.97-9.944-30-2.432-7.629-4.881-15.218-7.2-22.821a102.476,102.476,0,0,1,9.329-33.025c.711-1.5-1.677-2.487-2.389-.986a104.421,104.421,0,0,0-8.744,28c-5.16-17.514-9.425-35.18-10.942-53.654C206.854,254.294,204.291,254.622,204.427,256.276Z" transform="translate(-181.944 -207.348)" fill="#bee1f4"/>
            </g>
          </g>
        </g>
        <path id="Path_6147" data-name="Path 6147" d="M796.98,372.673H165.567a2.855,2.855,0,0,1-2.855-2.854h0a2.855,2.855,0,0,1,2.855-2.855H796.98a2.854,2.854,0,0,1,2.855,2.855h0A2.854,2.854,0,0,1,796.98,372.673Z" transform="translate(-71.613 60.924)" fill="#f5f7ff"/>
      </g>
      <g id="Group_2338" data-name="Group 2338" transform="translate(404.757 195.328)">
        <g id="Group_2337" data-name="Group 2337" transform="translate(12.58 64.981)">
          <path id="Path_6148" data-name="Path 6148" d="M314.989,249.266l95.017-53.6,95.017,53.6v53.987H314.989Z" transform="translate(-314.989 -195.667)" fill="#e95a0c"/>
          <g id="Group_2336" data-name="Group 2336" transform="translate(18.248 39.194)">
            <rect id="Rectangle_1173" data-name="Rectangle 1173" width="141.903" height="109" transform="translate(0 5.279)" fill="#f4f4f4"/>
            <rect id="Rectangle_1174" data-name="Rectangle 1174" width="141.903" height="109.001" transform="translate(5.986)" fill="#fff"/>
            <rect id="Rectangle_1175" data-name="Rectangle 1175" width="112.078" height="3.101" transform="translate(19.883 22.093)" fill="#e8605c"/>
            <rect id="Rectangle_1176" data-name="Rectangle 1176" width="112.078" height="3.101" transform="translate(19.883 32.073)" fill="#fdd17a"/>
            <rect id="Rectangle_1177" data-name="Rectangle 1177" width="112.078" height="3.101" transform="translate(19.883 42.053)" fill="#fdd17a"/>
          </g>
          <path id="Path_6149" data-name="Path 6149" d="M505.023,322.42l-95.017-53.986L314.989,322.42Z" transform="translate(-314.989 -160.848)" fill="#fd6d52"/>
          <path id="Path_6150" data-name="Path 6150" d="M314.989,231.919l95.017,53.987-95.017,53.986Z" transform="translate(-314.989 -178.321)" fill="#e95a0c"/>
          <path id="Path_6151" data-name="Path 6151" d="M474.272,231.919V339.892l-95.017-53.986Z" transform="translate(-284.237 -178.321)" fill="#e95a0c"/>
        </g>
        <path id="Path_6152" data-name="Path 6152" d="M408.055,193.244V152.215a.5.5,0,0,0-.5-.5H306.977a.5.5,0,0,0-.5.5V204.2a.5.5,0,0,0,.5.5h74.472a.51.51,0,0,1,.29.092l31.55,32.883a.5.5,0,0,0,.755-.578l-5.958-43.677A.488.488,0,0,1,408.055,193.244Z" transform="translate(-306.48 -151.717)" fill="#fd6d52"/>
      </g>
      <g id="Group_2342" data-name="Group 2342" transform="translate(178.304 60.577)">
        <g id="Group_2339" data-name="Group 2339" transform="translate(393.16 36.581)">
          <path id="Path_6153" data-name="Path 6153" d="M531.713,399.113q.2,6.7.389,13.411a22.5,22.5,0,0,1-.541,7.045c-.652,2.2-1.959,4.14-2.808,6.27a16.356,16.356,0,0,0,4.455,18.008,2,2,0,0,0,.884.509c.878.164,1.541-.754,1.959-1.545,1.956-3.708,3.914-7.418,5.667-11.226,1.578-3.427,2.987-6.933,4.654-10.318,5.178-10.512,12.842-19.9,16.113-31.151a85.117,85.117,0,0,1-23.242-11.793,1.618,1.618,0,0,0-.909-.4,1.579,1.579,0,0,0-.933.466c-2.2,1.826-8.909,6.7-8.946,9.8-.016,1.452,2.027,3.359,2.518,4.852A21.513,21.513,0,0,1,531.713,399.113Z" transform="translate(-367.338 54.694)" fill="#1c1c38"/>
          <path id="Path_6154" data-name="Path 6154" d="M488.653,410.344a20.281,20.281,0,0,0-1.363,5.833,25.765,25.765,0,0,0,1.189,6.82c.968,3.977,1.489,8.229,3.863,11.563s7.483,5.2,10.611,2.562c2.068-1.745,2.518-4.709,3.878-7.047,1.795-3.081,5.306-5.324,5.74-8.862.245-2.006-.588-3.964-1.294-5.856a50.807,50.807,0,0,1-3.066-21.147c.055-.744-11.982-2.589-13.627-.881-1.533,1.591-2.079,5.714-2.787,7.792Q490.224,405.732,488.653,410.344Z" transform="translate(-386.671 61.729)" fill="#0f0f23"/>
          <path id="Path_6155" data-name="Path 6155" d="M509.51,283.139c-2.076,9.189-5.593,17.989-8.031,27.089-4.539,16.942-5.271,34.637-5.978,52.163q-2,49.624-4,99.251c-.081,1.986-.114,4.137,1.044,5.753a7.815,7.815,0,0,0,3.47,2.406,28.249,28.249,0,0,0,12.208,2.167c12.419-36.445,16.485-75.107,23.943-112.881,6.813-34.511,16.5-68.439,22.3-103.133.738-4.406,1.385-9.075-.276-13.221-2.522-6.288-9.862-9.547-16.635-9.353a37.5,37.5,0,0,0-16.812,4.876c-4.093,2.4-4.646,6.261-5.726,10.851C512.38,260.312,512.044,271.912,509.51,283.139Z" transform="translate(-384.67 -14.475)" fill="#e95a0c"/>
          <path id="Path_6156" data-name="Path 6156" d="M454.383,159.285a4.9,4.9,0,0,0-1.428.688c-3.642,2.345-8.794,5.278-11.405,8.806-2.089,2.821-3.378,7.879-4.69,11.235q-2.368,6.061-4.739,12.122c-.868,2.222-5.367,6.568-5.617,8.941,12.743-4.413,28.9-11.513,41.182-17.093l-10.86-22.964a2.96,2.96,0,0,0-1.446-1.7A1.739,1.739,0,0,0,454.383,159.285Z" transform="translate(-415.754 -49.954)" fill="#f29d7e"/>
          <path id="Path_6157" data-name="Path 6157" d="M479.886,274.4q-7.095,38.986-14.191,77.973c-.757,4.156-1.489,8.577.092,12.495,1.354,3.352,4.2,5.821,6.755,8.382,5.7,5.719,10.292,12.425,15.288,18.771,13.094,16.636,28.995,30.812,44.806,44.892q9.605,8.556,19.212,17.109a9.219,9.219,0,0,0,2.434,1.736c3.417,1.453,7.007-1.461,9.579-4.138,2.559-2.661,5.317-5.9,4.743-9.551a11.939,11.939,0,0,0-2.207-4.629,465.9,465.9,0,0,0-38.943-50.157c-5.293-5.935-10.855-11.915-13.783-19.309-2.707-6.838-2.95-14.374-2.936-21.73a119.55,119.55,0,0,1,1.5-21.185,172.913,172.913,0,0,1,4.606-17.525A403.89,403.89,0,0,0,530,243.8a4.71,4.71,0,0,0-.3-3.031c-1-1.652-3.429-1.446-5.309-1a178.682,178.682,0,0,0-32.115,10.871C482.8,254.9,481.627,264.835,479.886,274.4Z" transform="translate(-397.406 -11.565)" fill="#fd6d52"/>
          <path id="Path_6158" data-name="Path 6158" d="M448.585,166.386c-.566.625-3.182,2.706-3.4,3.523-.3,1.15,1.708,2.877,2.168,3.974,2.315,5.522,5.127,9.927,7.441,15.449.393.936,1.779,6.145,2.5,6.863,1.853,1.851,6.219-3.108,9.566-4.953,8.534,17.369,9.779,37.251,12.563,56.4,2.663,18.311,5.386,27.023,9.57,45.046.2.858,1.873,14.015,2.383,14.73.606.85,12.113-2.182,18.087-4.255,3.995-1.385,9.638-3.883,13.862-4.057,9.458-.389,17.974-7.891,27.438-7.991,4.736-.052,9.335-.758,13.352-3.266,1.98-1.235,3.9-1.128,5.713-2.6,2.913-2.372,7.088-3.406,8.907-6.693,1.873-3.384.387-7.568-1.118-11.132l-13.182-31.219a30.712,30.712,0,0,1-2.2-6.553,30.715,30.715,0,0,1,.124-8.615q1.963-18.026,3.924-36.05,3.085,12.53,6.171,25.064,11.628-7.791,23.254-15.58c.832-.557,2.406-1.18,2.735-2.126.322-.918-.646-1.928-.924-2.861q-3.278-10.96-6.553-21.92c-1.844-6.165-3.871-12.637-8.571-17.034-4.1-3.831-9.675-5.559-15.05-7.171l-24.9-7.471a12.827,12.827,0,0,0-4.512-.781,14.948,14.948,0,0,0-4.768,1.545,45.416,45.416,0,0,1-19.256,3.639c-5.371-.157-10.808-2.5-16.138-1.9-11.636,1.308-24.089,8.312-33.485,14.931C458.564,157.36,453.279,161.191,448.585,166.386Z" transform="translate(-406.828 -61.501)" fill="#4250a6"/>
          <path id="Path_6159" data-name="Path 6159" d="M543.275,218.571c.865,3,1.739,6.109,1.334,9.207a22.841,22.841,0,0,1-1.873,5.849c-3.139,7.427-4.66,15.786-7.8,23.213a215.3,215.3,0,0,0-7.378,20.4c-.791,2.6,3.51,5.778,9.266,9.668,9.86-20.115,22.234-39.732,34.075-58.748a18.4,18.4,0,0,0,2.973-6.528,14.89,14.89,0,0,0-.384-5.608c-2.38-10.737-11.914-35.094-15.121-42.207,0,0-23.208,15.023-23.208,16.3,0,3.077,3.488,12.388,4.113,14.557C540.6,209.3,541.755,214.013,543.275,218.571Z" transform="translate(-367.444 -42.971)" fill="#ffbda9"/>
          <path id="Path_6160" data-name="Path 6160" d="M440.466,122.488a54.218,54.218,0,0,0-3.924-4.291c-1.258-1.478-2.227-3.442-1.737-5.321a2.155,2.155,0,0,1,2.657.027,22.15,22.15,0,0,0,2.323,1.7c2.357,1.11,4.94-.826,6.9-2.539s4.864-3.378,6.967-1.839c.937.688,1.442,1.888,2.465,2.441,1.56.844,4.005.04,4.9,1.57.4.689.259,1.588.621,2.3.735,1.449,3.044,1.356,3.93,2.719a3.866,3.866,0,0,1,.449,1.9c.2,3.253.321,6.785-1.544,9.458-1.122,1.607-2.839,2.7-4.11,4.19a19.247,19.247,0,0,0-2.936,5.54c-5.581,14.046-11.217,28.31-12.783,43.342-.767,7.372-.547,14.86-2.026,22.121s-5,14.55-11.359,18.362a3.018,3.018,0,0,1-2.293.577,3.17,3.17,0,0,1-1.515-1.291c-5.192-6.9-8.864-15.39-8.127-23.995a49.18,49.18,0,0,1,1.8-8.713q5.005-18.35,11.206-36.346,3.12-9.062,6.541-18.022C440.677,131.678,443.857,127.461,440.466,122.488Z" transform="translate(-419.233 -73.691)" fill="#ffbda9"/>
          <path id="Path_6161" data-name="Path 6161" d="M479.818,147.55a5.655,5.655,0,0,0-.464,3.188,5.477,5.477,0,0,0,2.13,2.689c7.3,5.9,16.547,10.718,25.754,8.893a33.716,33.716,0,0,0,9.128-3.6c5.887-3.123,12.059-7.656,12.822-14.276A139.234,139.234,0,0,1,512.05,122.8c-.343-.535-.76-1.125-1.388-1.215a2.227,2.227,0,0,0-1.134.242c-7.131,2.919-15.779,5.13-22.324,9.17-2.147,1.325-2.589,2.953-3.426,5.3C482.667,139.414,479.818,144.275,479.818,147.55Z" transform="translate(-390.508 -67.969)" fill="#f29d7e"/>
          <path id="Path_6162" data-name="Path 6162" d="M472.52,128.539a5.064,5.064,0,0,0,3.818.982,44.073,44.073,0,0,0,8.732,15.626,14.99,14.99,0,0,0,4.23,3.633,15.457,15.457,0,0,0,6.4,1.394,53.61,53.61,0,0,0,6.683-.075,12.375,12.375,0,0,0,4.747-1.069,12.2,12.2,0,0,0,4.257-4.231,46.607,46.607,0,0,0,4.549-8.383,6.6,6.6,0,0,0,.634-2.386,7.1,7.1,0,0,0-.535-2.4q-2.5-7.155-4.993-14.309a2.311,2.311,0,0,1-.192-1.063,3.173,3.173,0,0,1,.874-1.4,4.312,4.312,0,0,0-3.581-6.979q-1.275-2.57-2.549-5.142a12.175,12.175,0,0,0-1.758-2.855,8.336,8.336,0,0,0-2.71-1.9,12.408,12.408,0,0,0-10.728.1,17.729,17.729,0,0,0-6.7,6.933c-1.678,2.79-3,5.79-4.811,8.5-1.7,2.546-4.45,4.455-5.565,7.3C472.368,123.236,469.832,126.311,472.52,128.539Z" transform="translate(-394.309 -79.822)" fill="#ffbda9"/>
          <path id="Path_6163" data-name="Path 6163" d="M487.022,85.338a39.25,39.25,0,0,0-18.376,5.025c-4.458,2.6-8.51,6.662-9.205,11.776-.8,5.887,2.981,11.392,7.081,15.694a74.154,74.154,0,0,0,11.9,10.109,8.273,8.273,0,0,0,3.584,1.638,6.64,6.64,0,0,0,4.517-1.492c4.706-3.409,6.655-9.417,7.9-15.093a17.24,17.24,0,0,1,1.949-5.759c1.1-1.715,3.1-3.028,5.11-2.679,2.116.367,3.51,2.342,4.665,4.152l4.564,7.15a3.3,3.3,0,0,0,1.408,1.433c1.835.724,3.1-1.9,3.235-3.874a45.982,45.982,0,0,0-1.666-15.665c-1.585-5.546-5.326-5.793-9.831-8.059C498.23,86.866,493.492,85.112,487.022,85.338Z" transform="translate(-400.046 -85.319)" fill="#1b4e61"/>
        </g>
        <g id="Group_2341" data-name="Group 2341" transform="translate(0)">
          <path id="Path_6164" data-name="Path 6164" d="M316.836,269.86a2.844,2.844,0,0,1,1.805.806,2.681,2.681,0,0,1,.441,1.362c1.325,10.589-3.162,21.094-9.013,30.02s-13.138,16.879-18.5,26.107a147.507,147.507,0,0,0-6.585,13.318q-4.95,10.922-9.9,21.846-18.634,41.108-37.424,82.144c-1.241,2.7-2.611,5.54-5.129,7.109s-6.522,1.1-7.628-1.656c1.165-32.762,17.489-62.751,27.787-93.875a261.337,261.337,0,0,0,11.325-50.633,28.894,28.894,0,0,0,.108-8.849c-.59-3.1-2.132-5.97-2.63-9.088-.631-3.951.454-7.953,1.529-11.806,1.044-3.741,1.6-10.564,4.586-13.388,3.3-3.112,9.127-.682,12.989.018C292.655,265.48,304.716,268.065,316.836,269.86Z" transform="translate(-119.062 35.677)" fill="#4250a6"/>
          <path id="Path_6165" data-name="Path 6165" d="M230.516,284.526c-1.067,6.361-.705,12.866-.262,19.3a787.766,787.766,0,0,0,30.484,169.138c.874,2.953,2.605,6.53,5.679,6.356,3.566-.2,4.489-5,4.373-8.566-.547-16.837-1.1-33.716-3.5-50.39-1.495-10.394-3.708-20.741-3.823-31.241-.135-12.186,2.556-24.2,4.265-36.265,1.183-8.348,1.9-16.753,2.611-25.154q2.5-29.365,4.993-58.731a4.67,4.67,0,0,0-.235-2.463c-.617-1.251-2.16-1.672-3.523-1.96-6.844-1.449-23.736-8.444-30.11-5.077C235.388,262.689,231.526,278.335,230.516,284.526Z" transform="translate(-116.71 34.163)" fill="#4250a6"/>
          <path id="Path_6166" data-name="Path 6166" d="M304.737,274.1l-5.05-22.567-57.378,12.928Z" transform="translate(-110.733 30.795)" fill="#f5b7a0"/>
          <path id="Path_6167" data-name="Path 6167" d="M270.462,168.929,286.3,186.08s-15.881,30.861-44.55,11.767l4.709-28Z" transform="translate(-111.001 -8.73)" fill="#f39e81"/>
          <path id="Path_6168" data-name="Path 6168" d="M273.019,155.752l1.19,27.179-5.16,3.414a17.829,17.829,0,0,1-17.93,1.016l-6.3-3.21-4.674-35.713,31.507-4.285Z" transform="translate(-111.768 -20.585)" fill="#f5b7a0"/>
          <path id="Path_6169" data-name="Path 6169" d="M297.22,188.508S304.8,208.5,282.058,208.5c0,0-18.079,2.416-22.745-9.349L247.65,194.69l-33.825-6.182L203.7,215.084l37.532,15.489,13.413,46.036-5.907,26.171a8.294,8.294,0,0,0,9.794,9.941L332.027,297.3a8.293,8.293,0,0,0,5.042-12.94l-8.435-11.8a38.643,38.643,0,0,1-6.715-28.642l7.959-49.23,4.666-38.8-31.492-4.239Z" transform="translate(-129.206 -16.997)" fill="url(#linear-gradient)"/>
          <path id="Path_6170" data-name="Path 6170" d="M300.7,184.647,271.26,90l-8.4,5.451L281.7,182.089Z" transform="translate(-100.898 -46.498)" fill="#f5b7a0"/>
          <path id="Path_6171" data-name="Path 6171" d="M222.932,209.6l-20.2-9.266L187.31,120.5l-7.558,4.771,7.925,82.136L216.41,226.72Z" transform="translate(-140.667 -31.904)" fill="#f5b7a0"/>
          <g id="Group_2340" data-name="Group 2340">
            <path id="Path_6172" data-name="Path 6172" d="M276.087,64.032l34.053-3.455-18.548,26.2Z" transform="translate(-94.57 -60.577)" fill="#ea5f5a"/>
            <path id="Path_6173" data-name="Path 6173" d="M330.906,62.914,161.522,169.84l16.053,25.406L346.411,85.656Z" transform="translate(-149.39 -59.459)" fill="#164756"/>
            <path id="Path_6174" data-name="Path 6174" d="M165.45,135.234l-5.156,3.272a15.026,15.026,0,0,0-4.653,20.714h0a15.028,15.028,0,0,0,20.754,4.662l5.107-3.241Z" transform="translate(-153.316 -24.853)" fill="#ea5f5a"/>
            <path id="Path_6175" data-name="Path 6175" d="M173.447,189.887,342.283,80.3l-4.215-6.183L170.15,184.67Z" transform="translate(-145.261 -54.099)" fill="#082c35"/>
          </g>
          <path id="Path_6176" data-name="Path 6176" d="M187.028,121.377l4.913,5.8-9.652,5.572-6.244-4.442Z" transform="translate(-142.441 -31.483)" fill="#f39e81"/>
          <path id="Path_6177" data-name="Path 6177" d="M281.049,84.586l-1.178,7.069-9.946,4.824-1.748-3.538Z" transform="translate(-98.355 -49.088)" fill="#f39e81"/>
          <path id="Path_6178" data-name="Path 6178" d="M260.526,397.324l-5.465.983a3.747,3.747,0,0,0-3.071,4.02l.858,9.72a3.741,3.741,0,0,1-.424,2.089l-8.135,15.3a3.749,3.749,0,0,0,.748,4.5l3.041,2.85a3.752,3.752,0,0,0,2.893,1l8.958-.791a3.749,3.749,0,0,0,2.788-1.654L266.946,429a3.744,3.744,0,0,0,.463-3.188l-3.933-12.731a3.76,3.76,0,0,1-.121-1.69l1.539-9.791A3.75,3.75,0,0,0,260.526,397.324Z" transform="translate(-109.996 100.529)" fill="#1c1c38"/>
          <path id="Path_6179" data-name="Path 6179" d="M239.184,387.352l-5.6-2.61a2.334,2.334,0,0,0-2.97.89l-8.161,13.2a2.023,2.023,0,0,1-.146.21l-2.3,2.944-4.341,5.555a2.334,2.334,0,0,0-.177,2.611L231.707,438a2.335,2.335,0,0,0,4.242-.464l1.6-4.986a2.335,2.335,0,0,0,.006-1.4l-5.606-18.013a2.342,2.342,0,0,1,.058-1.549l8.37-21.262A2.333,2.333,0,0,0,239.184,387.352Z" transform="translate(-123.721 94.434)" fill="#1c1c38"/>
          <path id="Path_6180" data-name="Path 6180" d="M240.082,144.692c-3.21,6.074.679,13.874-1.795,20.284-1.421,3.681-4.826,6.519-5.479,10.41-.649,3.868,1.615,7.8.9,11.654-.788,4.277-4.864,7.017-7.387,10.558a16.138,16.138,0,0,0-2.79,11.587c.38,2.571,1.388,5.064,1.341,7.663-.108,5.908-5.6,11.074-4.554,16.889.485,2.681,2.317,4.935,3.022,7.566,1.063,3.968-.553,8.095-1.115,12.165s.665,9.177,4.625,10.271c1.416.39,3.049.211,4.224,1.091,1.388,1.039,1.495,3.025,1.756,4.737.455,2.987,1.892,5.979,4.471,7.551s6.392,1.249,8.148-1.208c.946-1.325,1.283-3.14,2.63-4.054,2.83-1.919,6.625,1.949,9.885.917a5.564,5.564,0,0,0,2.337-1.677,13.877,13.877,0,0,0,3.217-12.156c-.423-1.89-1.251-3.826-.719-5.688a12.2,12.2,0,0,1,1.619-2.914,12.612,12.612,0,0,0,.926-11.226c-.875-2.132-2.34-4.016-2.957-6.236-1.413-5.093,1.918-10.777-.04-15.688-1.127-2.825-3.8-4.767-5.163-7.483-3.282-6.52,1.931-14.615-.288-21.568-.6-1.87-1.709-3.548-2.259-5.432-1.754-6,2.494-12.1,2.682-18.348.065-2.2-.38-4.416-.142-6.609.206-1.9.92-3.735.97-5.646.1-3.6-3.371-10.214-6.633-11.988C247.689,138.027,241.879,141.293,240.082,144.692Z" transform="translate(-121.318 -22.832)" fill="#e8605c"/>
          <path id="Path_6181" data-name="Path 6181" d="M248.642,153.531a9.3,9.3,0,0,1,3.09.8c1.637,1.013,1.977,3.395,3.591,4.44,1.263.816,2.9.574,4.4.467,3.934-.278,8.445,1.02,10.144,4.58,1.53,3.207.276,7.064,1.076,10.525.541,2.343,1.461,4.437,1.7,6.829.248,2.457-.287,4.861-.371,7.33-.087,2.53.877,4.984,1.01,7.512.33,6.31-4.487,12.578-2.4,18.543.423,1.208,1.112,2.309,1.547,3.513,1.719,4.767-.682,10.625,2.091,14.865,1.39,2.126,3.906,3.473,4.8,5.85a28.055,28.055,0,0,1,.708,3.631,7.974,7.974,0,0,0,6.625,5.957c1.443.176,2.938-.05,4.336.349,2.21.631,3.715,2.679,5.769,3.714a7.073,7.073,0,0,0,8.448-1.848c.713-.893,1.258-2.014,2.295-2.5,1.764-.822,4.113.6,5.7-.531a4.043,4.043,0,0,0,1.181-1.708c1.776-3.949,2.887-8.889.308-12.365a18.378,18.378,0,0,1-1.8-2.348c-1.666-3.226,1.456-7.384-.077-10.675-1.4-3.006-5.617-3.272-8.071-5.5-3.319-3.012-2.615-8.757-5.742-11.967-2.629-2.7-7.647-3.307-8.5-6.974-.29-1.242.025-2.546-.117-3.812-.5-4.475-6.226-6.761-7.214-11.155-.433-1.926.127-4-.494-5.879-.417-1.263-1.335-2.305-1.807-3.548-1.26-3.324.9-7.254-.472-10.534-.538-1.288-1.573-2.329-2.049-3.64-.514-1.415-.322-2.99-.665-4.455a12.506,12.506,0,0,0-2.759-4.746c-3.149-3.936-6.511-8.034-11.191-9.909-4.5-1.8-14.316-2.76-18.444.686C240.244,143.238,242.153,152.175,248.642,153.531Z" transform="translate(-110.682 -24.14)" fill="#e8605c"/>
        </g>
      </g>
    </g>
  </g>
</svg>
